<svg height="480pt" viewBox="-60 0 480 480" width="480pt" xmlns="http://www.w3.org/2000/svg"><path d="m32 8v464h320v-464zm0 0" fill="#e2d8cd"/><path d="m96 32h216c8.835938 0 16 7.164062 16 16v384c0 8.835938-7.164062 16-16 16h-216c-8.835938 0-16-7.164062-16-16v-384c0-8.835938 7.164062-16 16-16zm0 0" fill="#dcd0c3"/><path d="m352 0h-320c-4.417969 0-8 3.582031-8 8v32h-16c-4.417969 0-8 3.582031-8 8s3.582031 8 8 8h16v16h-16c-4.417969 0-8 3.582031-8 8s3.582031 8 8 8h16v16h-16c-4.417969 0-8 3.582031-8 8s3.582031 8 8 8h16v16h-16c-4.417969 0-8 3.582031-8 8s3.582031 8 8 8h16v16h-16c-4.417969 0-8 3.582031-8 8s3.582031 8 8 8h16v16h-16c-4.417969 0-8 3.582031-8 8s3.582031 8 8 8h16v16h-16c-4.417969 0-8 3.582031-8 8s3.582031 8 8 8h16v16h-16c-4.417969 0-8 3.582031-8 8s3.582031 8 8 8h16v16h-16c-4.417969 0-8 3.582031-8 8s3.582031 8 8 8h16v16h-16c-4.417969 0-8 3.582031-8 8s3.582031 8 8 8h16v16h-16c-4.417969 0-8 3.582031-8 8s3.582031 8 8 8h16v16h-16c-4.417969 0-8 3.582031-8 8s3.582031 8 8 8h16v16h-16c-4.417969 0-8 3.582031-8 8s3.582031 8 8 8h16v32c0 4.417969 3.582031 8 8 8h320c4.417969 0 8-3.582031 8-8v-464c0-4.417969-3.582031-8-8-8zm-8 464h-304v-24h16c4.417969 0 8-3.582031 8-8s-3.582031-8-8-8h-16v-16h16c4.417969 0 8-3.582031 8-8s-3.582031-8-8-8h-16v-16h16c4.417969 0 8-3.582031 8-8s-3.582031-8-8-8h-16v-16h16c4.417969 0 8-3.582031 8-8s-3.582031-8-8-8h-16v-16h16c4.417969 0 8-3.582031 8-8s-3.582031-8-8-8h-16v-16h16c4.417969 0 8-3.582031 8-8s-3.582031-8-8-8h-16v-16h16c4.417969 0 8-3.582031 8-8s-3.582031-8-8-8h-16v-16h16c4.417969 0 8-3.582031 8-8s-3.582031-8-8-8h-16v-16h16c4.417969 0 8-3.582031 8-8s-3.582031-8-8-8h-16v-16h16c4.417969 0 8-3.582031 8-8s-3.582031-8-8-8h-16v-16h16c4.417969 0 8-3.582031 8-8s-3.582031-8-8-8h-16v-16h16c4.417969 0 8-3.582031 8-8s-3.582031-8-8-8h-16v-16h16c4.417969 0 8-3.582031 8-8s-3.582031-8-8-8h-16v-24h304zm0 0" fill="#58595b"/></svg>