<svg id="_x33_0" enable-background="new 0 0 64 64" height="512" viewBox="0 0 64 64" width="512" xmlns="http://www.w3.org/2000/svg"><g><g><g><path d="m62 61c0 .55-.45 1-1 1h-58c-.55 0-1-.45-1-1 0-1.38.56-2.63 1.46-3.54.68-.68 1.56-1.16 2.54-1.36.32-.07.66-.1 1-.1h9 8 8 10 15c.34 0 .68.03 1 .1 2.28.46 4 2.48 4 4.9z" fill="#d3a06c"/></g><g><path d="m13 15 5 7h-10z" fill="#969faa"/></g><g><path d="m37 15 5 7h-10z" fill="#969faa"/></g><g><path d="m8 28v-6h10v4 6h-4v2h-4v-2h-2z" fill="#aab2bd"/></g><g><path d="m40 30c0 1.1.9 2 2 2h-4v2h-4v-2h-2v-6-4h10v4h-2v2z" fill="#aab2bd"/></g><g><path d="m25 9 7 9h-14z" fill="#aab2bd"/></g><g><path d="m32 26v6h-2v2h-4v-2h-4v2h-4v-2-6-4-4h14v4z" fill="#ccd1d9"/></g><g><path d="m28 25v3h-6v-3c0-1.66 1.34-3 3-3 .83 0 1.58.34 2.12.88s.88 1.29.88 2.12z" fill="#69d6f4"/></g><g><path d="m42 26h2v2h4v-2h4v2h4v-2h4v4c0 1.1-.9 2-2 2h-16c-1.1 0-2-.9-2-2v-2-2z" fill="#d3a06c"/></g><g><path d="m42 56v-8-2-2-12h16v16 8.1c-.32-.07-.66-.1-1-.1z" fill="#cf9e76"/></g><g><path d="m24 42c-3.73 0-6.86 2.55-7.75 6-.16.64-.25 1.31-.25 2v6h-9c-.34 0-.68.03-1 .1v-8.1-4-12h2 2v2h4v-2h4v2h4v-2h4v2h4v-2h2 2v2h4v-2h4v12 2 2 8h-10v-6c0-.69-.09-1.36-.25-2-.37-1.41-1.1-2.66-2.09-3.66-1.45-1.44-3.45-2.34-5.66-2.34z" fill="#dfb28b"/></g><g><path d="m31.75 48c-.37-1.41-1.1-2.66-2.09-3.66-1.45-1.44-3.45-2.34-5.66-2.34-3.73 0-6.86 2.55-7.75 6-.16.64-.25 1.31-.25 2v6h8 8v-6c0-.69-.09-1.36-.25-2z" fill="#b27946"/></g><g><path d="m37 8v5l-6-2z" fill="#ff826e"/></g><g><path d="m25 2v5l-6-2z" fill="#ff826e"/></g><g><path d="m13 8v5l-6-2z" fill="#ff826e"/></g></g><g><path d="m59 55.35v-22.534c1.161-.414 2-1.514 2-2.816v-5h-6v2h-2v-2h-6v2h-2v-2h-2v-3.32l-5-7v-8.298l-9.606 4.803 7.606 2.536v.959l-3 4.2v-1.223l-7-9v-8.275l-9.606 4.803 7.606 2.536v.936l-7 9v1.223l-3-4.2v-8.298l-9.606 4.803 7.606 2.536v.959l-5 7v9.32h-2v24.35c-2.327.826-4 3.043-4 5.65 0 1.103.897 2 2 2h58c1.103 0 2-.897 2-2 0-2.607-1.673-4.824-4-5.65zm-16-.35v-8h4v-2h-4v-12h14v14h-2v2h2v6zm6-26v-2h2v2h6v-2h2v3c0 .551-.449 1-1 1h-16c-.551 0-1-.449-1-1v-3h2v2zm-10-4v2h-2v2h2v1c0 .352.072.686.184 1h-2.184v2h-2v-2h-2v-4h2v-2h-2v-2h8v2zm-18 6v2h-2v-1-1-12h12v12h-2v2h-2v-2zm-.955-14 4.955-6.371 4.955 6.371zm13.898 4 3.057-4.279 3.057 4.279zm-.337-10.185 2.394-1.197v1.995zm-12-6 2.394-1.197v1.995zm-5.549 16.185h-6.114l3.057-4.279zm-6.451-10.185 2.394-1.197v1.995zm-.606 18.185h4v-2h-4v-4h8v2h-2v2h2v4h-4v2h-2v-2h-2zm-2 20h2v-2h-2v-2h4v-2h-4v-10h2v2h6v-2h2v2h6v-2h2v2h6v-2h2v2h6v-2h2v10h-4v2h4v2h-2v2h2v6h-8v-5c0-.338-.022-.671-.059-1h2.059v-2h-2.525c-1.24-3.49-4.565-6-8.475-6s-7.235 2.51-8.475 6h-2.525v2h2.059c-.037.329-.059.662-.059 1v5h-8zm16 6h-6v-5c0-3.519 2.613-6.432 6-6.92zm2-11.92c3.387.488 6 3.401 6 6.92v5h-6zm-22 17.92c0-2.206 1.794-4 4-4h50c2.206 0 4 1.794 4.001 4z"/><path d="m29 25c0-2.206-1.794-4-4-4s-4 1.794-4 4v4h8zm-2 2h-4v-2c0-1.103.897-2 2-2s2 .897 2 2z"/><path d="m37 51h2v2h-2z"/><path d="m35 39h4v2h-4z"/><path d="m27 37h4v2h-4z"/><path d="m31 41h2v2h-2z"/><path d="m9 51h2v2h-2z"/><path d="m9 37h2v2h-2z"/><path d="m19 37h4v2h-4z"/><path d="m13 41h4v2h-4z"/><path d="m49 47h2v2h-2z"/><path d="m49 51h4v2h-4z"/><path d="m51 43h4v2h-4z"/><path d="m53 35h2v2h-2z"/><path d="m45 35h2v2h-2z"/><path d="m47 39h4v2h-4z"/><path d="m45 51h2v2h-2z"/></g></g></svg>