<?xml version="1.0" encoding="UTF-8"?>
<svg viewBox="0 0 1317.2 1256.3" xmlns="http://www.w3.org/2000/svg" xmlns:xlink="http://www.w3.org/1999/xlink">
 <defs>
  <filter id="j">
   <feGaussianBlur stdDeviation="1.28674"/>
  </filter>
  <filter id="q" x="-658.58" y="-628.16" width="200%" height="200%">
   <feGaussianBlur in="SourceGraphic" stdDeviation="1.9"/>
  </filter>
  <linearGradient id="a">
   <stop stop-color="#fff" offset="0"/>
   <stop offset="1"/>
  </linearGradient>
  <radialGradient id="o" cx="695.71" cy="556.65" r="370" gradientTransform="matrix(1 0 0 .98456 0 8.5969)" gradientUnits="userSpaceOnUse" spreadMethod="reflect">
   <stop stop-color="#fff" offset="0"/>
   <stop stop-color="#ececec" offset=".89189"/>
   <stop offset="1"/>
  </radialGradient>
  <radialGradient id="n" cx="695.71" cy="556.65" r="370" gradientTransform="matrix(-.37066 0 0 -.38075 555.03 393.76)" gradientUnits="userSpaceOnUse" spreadMethod="reflect" xlink:href="#a"/>
  <radialGradient id="m" cx="695.71" cy="556.65" r="370" gradientTransform="matrix(-.37066 0 0 -.13995 837.39 214.66)" gradientUnits="userSpaceOnUse" spreadMethod="reflect" xlink:href="#a"/>
  <radialGradient id="l" cx="695.71" cy="556.65" r="370" gradientTransform="matrix(.37066 0 0 .2904 310.7 86.12)" gradientUnits="userSpaceOnUse" spreadMethod="reflect" xlink:href="#a"/>
  <radialGradient id="p" cx="-693.37" cy="1146.6" r="218.56" gradientTransform="matrix(1.1799 0 0 -.33183 1273.3 874.24)" gradientUnits="userSpaceOnUse">
   <stop offset="0"/>
   <stop stop-opacity="0" offset="1"/>
  </radialGradient>
  <radialGradient id="k" cx="695.71" cy="556.65" r="370" gradientTransform="matrix(.3861 0 0 .2904 34.242 100.41)" gradientUnits="userSpaceOnUse" spreadMethod="reflect" xlink:href="#a"/>
 </defs>
 <g transform="matrix(9.3351 0 0 9.2342 3002.4 -5888)" fill="#150168" filter="url(#q)">
  <path d="m-187.02 735.94c-6.597-6.595-13.189-13.188-19.785-19.783-3.288-3.288-6.576-6.577-9.864-9.865-1.915-1.915-0.10599-2.309 1.725-4.14 8.093-8.095 16.188-16.19 24.281-24.283 2.697-2.7 5.927-5.249 6.376-9.333 0.617-5.644-4.11-9.153-7.651-12.693-5.773-5.773-17.326-22.657-27.023-16.643-7.658 4.75-14.12 13.764-20.432 20.076-3.479 3.479-6.957 6.957-10.436 10.434-2.15 2.15-1.827 1.591-3.996-0.57599-8.051-8.051-16.104-16.102-24.157-24.153-2.328-2.328-4.845-5.592-8.057-6.692-6.127-2.095-10.011 2.47-13.826 6.281-5.602 5.602-21.684 16.598-18.467 26.012 1.098 3.213 4.361 5.729 6.688 8.059l13.212 13.212c3.648 3.648 7.296 7.296 10.945 10.947 2.167 2.167 2.726 1.845 0.57599 3.996-7.969 7.967-15.936 15.936-23.905 23.904-2.152 2.152-4.979 4.335-6.608 6.962-3.749 6.042 0.466 10.843 4.523 14.898 5.48 5.48 15.905 20.748 24.816 19.772 8.071-0.88397 17.021-14.063 22.218-19.261 4.016-4.012 8.029-8.025 12.043-12.039 2.167-2.167 1.845-2.726 3.994-0.57501 8.245 8.242 16.489 16.485 24.732 24.729 2.883 2.883 5.76 6.67 10.104 7.146 5.642 0.617 9.15-4.11 12.691-7.65 5.942-5.942 24.881-19.152 15.283-28.742"/>
  <path d="m-287.9 642.01c2.126 2.13-22.226 24.48-25.087 26.422-4.748 3.223 4.856-9.947 5.78-10.959 1.488-1.628 16.647-18.123 19.307-15.463"/>
  <path d="m-281.02 710.24c2.172 2.18-28.186 30.286-31.196 32.637-1.428 1.116-3.703 2.102-2.241-0.64801 2.541-4.777 6.725-8.94 10.396-12.841 1.652-1.754 20.405-21.785 23.041-19.148"/>
  <path d="m-220.1 710.24c-2.167 2.172 28.184 30.286 31.193 32.637 1.429 1.116 3.705 2.102 2.243-0.64801-2.539-4.777-6.724-8.94-10.394-12.841-1.65-1.754-20.405-21.785-23.042-19.148"/>
  <path d="m-287.9 642.01c1.841-1.838 36.188 33.275 34.731 34.733-1.558 1.562-39.278-30.17-34.731-34.733"/>
  <path d="m-214.93 642.01c-2.129 2.132 22.224 24.48 25.086 26.422 4.746 3.223-4.855-9.947-5.781-10.959-1.485-1.626-16.649-18.123-19.305-15.463"/>
  <path d="m-214.93 642.01c-1.836-1.834-35.94 33.008-34.476 34.473 1.579 1.584 39.015-29.926 34.476-34.473"/>
  <path d="m-187.44 667.93c-1.838-1.838-20.787 18.733-22.4 20.36-3.009 3.038-7.01 6.294-9.028 10.148-1.559 2.978 5.516-1.839 5.892-2.13 3.065-2.374 29.68-24.242 25.536-28.378"/>
  <path d="m-251.92 732.42c-1.589-1.594-19.854 17.809-21.491 19.445-4.685 4.684-9.672 9.238-13.859 14.391-2.32 2.854-1.628 4.019 1.6 1.941 3.205-2.06 37.682-31.851 33.75-35.777"/>
  <path d="m-313.09 667.93c1.829-1.833 20.79 18.735 22.399 20.36 3.011 3.04 7.008 6.294 9.029 10.148 1.56 2.978-5.514-1.839-5.89-2.13-3.064-2.371-29.683-24.255-25.538-28.378"/>
  <path d="m-248.47 732.56c1.603-1.607 19.133 17.082 20.689 18.639 4.686 4.684 9.672 9.24 13.857 14.39 2.317 2.855 1.627 4.018-1.599 1.942-3.206-2.061-36.933-30.998-32.947-34.971"/>
  <path d="m-289.13 636.65c-7.374 0-14.027 9.615-18.709 14.297-5.675 5.674-16.408 13.272-10.383 22.412 3.84 5.826 10.373 10.68 15.26 15.567 5.387 5.388 10.777 10.771 16.161 16.163-8.732 8.721-17.454 17.452-26.181 26.179-4.257 4.257-8.981 8.757-6.191 15.486 2.154 5.201 8.574 9.712 12.414 13.552 3.698 3.698 7.337 8.499 11.725 11.435 6.522 4.365 12.054 0.047974 16.563-4.459 8.978-8.978 17.962-17.951 26.934-26.934 8.722 8.732 17.454 17.454 26.181 26.179 4.257 4.255 8.753 8.979 15.485 6.191 5.199-2.153 9.711-8.571 13.552-12.412 3.697-3.697 8.499-7.335 11.434-11.723 4.325-6.462 0.057983-12.045-4.458-16.563-8.979-8.978-17.952-17.96-26.935-26.932 8.722-8.732 17.454-17.456 26.182-26.183 4.242-4.242 8.927-8.711 6.212-15.419-2.119-5.23-8.59-9.774-12.435-13.62-3.701-3.699-7.355-8.548-11.768-11.46-6.517-4.301-12.021-0.013-16.521 4.485-8.978 8.978-17.96 17.951-26.932 26.934-6.127-6.135-12.26-12.26-18.39-18.392-4.735-4.7321-11.717-14.787-19.2-14.783m-5.93 132.15c-6.719-6.717-29.727-22.531-19.429-32.829 10.296-10.294 20.59-20.591 30.887-30.886-6.553-6.552-13.106-13.107-19.661-19.66-5.181-5.181-20.182-15.68-11.922-23.938 6.609-6.608 13.221-13.217 19.831-19.825 8.307-8.303 17.728 5.2761 23.09 10.636 6.891 6.891 13.782 13.782 20.673 20.671 0.104 0.104 17.34-17.238 18.626-18.522 5.156-5.156 16.596-21.437 24.944-13.079 7.122 5.452 13.205 13.201 19.557 19.548 8.67 8.668-4.56 17.713-10.288 23.443-6.909 6.909-13.817 13.818-20.727 20.728 10.312 10.309 22.737 20.149 31.657 31.657 8.243 8.24-7.113 18.976-12.248 24.109-5.53 5.527-12.562 15.199-20.584 7.178-6.651-6.65-13.301-13.302-19.953-19.952-2.148-2.147-9.521-12.34-12.118-9.746-6.862 6.862-13.724 13.722-20.585 20.584-4.958 4.954-13.975 17.677-21.75 9.8831"/>
 </g>
 <path d="m512.66 8.7925c-56.978 19.297-68.868 92.608-53.594 144.06-29.767 44.527-91.265 23.827-129.31 2.75-51.682 23.652-38.302 99.497 1.3594 127.95 45.644 106.72-19.231 229.36-109.87 289.63-75.782 56.565-181.01 95.336-212.49 192.92 11.504 56.442 102.5 44.159 111.5-7.875 64.857-98.31 243.24-48.031 253 67.524 8.9096 91.871-61.01 172.86-43.474 265.8-3.0024 63.733 90.854 81.437 105.44 17.828-5.0633-74.862 72.026-157.67 149.5-128.91 51.651 27.062 113.42 59.921 171.88 33.312 57.358-5.8686 105.86 50.954 97.75 106.59 4.019 43.19-8.8046 106.82 41.562 127.19 57.676-10.346 63.853-82.371 61.656-129.78-1.0994-92.258-10.792-184.55-16.864-276.17 16.343-87.575 104.94-130.76 175.28-170.41 72.594-38.553 157.82-77.031 192.43-156.57-10.511-43.528-75.878-32.063-94.154 0.3587-24.817 35.843-66.911 56.151-110.44 49.266-90.497-8.5926-157.1-109.71-125.52-195.91 16.161-61.217 48.761-137.02 0.26953-192.21-37.576-37.778-111.75-2.1251-137.31-56.564-8.2506-38.72-39.315-80.989-83.689-72.905-37.606 7.3995-51.241 53.418-91.469 57.031-39.311 13.186-71.04-17.377-88.125-49.188-15.36-22.059-35.555-46.929-65.312-45.719z" fill="#e00ba0" filter="url(#j)" stroke="#000" stroke-linecap="round" stroke-linejoin="round" stroke-width="17.5"/>
 <g stroke-linecap="square">
  <g fill="url(#o)" stroke-dasharray="2,1">
   <path d="m667.06 365.93a140 168.57 0 1 1 -280 0 140 168.57 0 1 1 280 0z"/>
   <path d="m935.63 371.65a145.71 128.57 0 1 1 -291.43 0 145.71 128.57 0 1 1 291.43 0z"/>
  </g>
  <g stroke-dasharray="24,12" stroke-width="12">
   <g stroke="#000">
    <path d="m555.52 371.65a49.252 50.046 0 1 1 -98.503 0 49.252 50.046 0 1 1 98.503 0z"/>
    <path d="m829.8 371.65a49.252 50.046 0 1 1 -98.503 0 49.252 50.046 0 1 1 98.503 0z"/>
   </g>
   <g fill="#fff">
    <path d="m595.52 343.07a49.252 50.046 0 1 1 -98.503 0 49.252 50.046 0 1 1 98.503 0z" opacity=".299"/>
    <path d="m861.23 337.36a49.252 50.046 0 1 1 -98.503 0 49.252 50.046 0 1 1 98.503 0z" opacity=".299"/>
   </g>
  </g>
 </g>
 <path d="m421.96 728.02s324.69-255.41 463.46-86.509c138.78 168.9-19.993-46.577-166.62-36.278-91.645 12.358-331.6 24.847-296.84 122.79z" fill-rule="evenodd" stroke="url(#p)" stroke-width="13.825"/>
 <g stroke-dasharray="2,1" stroke-linecap="square">
  <path d="m386.99 403.08c-1.8132 6.8314-2.7812 13.883-2.7812 21.114 0 59.312 63.987 107.46 142.84 107.46 78.857 0 142.88-48.146 142.88-107.46 0-7.2302-0.9682-14.283-2.7812-21.114h-280.16z" fill="url(#k)"/>
  <path d="m658.3 388.79c-1.7407 6.8314-2.67 13.883-2.67 21.114 0 59.312 61.427 107.46 137.13 107.46s137.16-48.146 137.16-107.46c0-7.2302-0.92944-14.283-2.67-21.114h-268.95z" fill="url(#l)"/>
  <path d="m938.19 309.08c1.7407-3.2922 2.67-6.6906 2.67-10.175 0-28.583-61.427-51.786-137.13-51.786s-137.16 23.202-137.16 51.786c0 3.4844 0.92944 6.8831 2.67 10.175h268.95z" fill="url(#m)"/>
  <path d="m655.83 371.65c1.7407-8.9567 2.67-18.203 2.67-27.683 0-77.764-61.427-140.89-137.13-140.89s-137.16 63.124-137.16 140.89c0 9.4796 0.92941 18.726 2.67 27.683h268.95z" fill="url(#n)"/>
 </g>
</svg>
