<?xml version="1.0" encoding="utf-8"?>
<!-- Generator: Adobe Illustrator 22.1.0, SVG Export Plug-In . SVG Version: 6.00 Build 0)  -->
<svg version="1.1" id="Layer_1" xmlns="http://www.w3.org/2000/svg" xmlns:xlink="http://www.w3.org/1999/xlink" x="0px" y="0px"
	 viewBox="0 0 288.1 219.9" style="enable-background:new 0 0 288.1 219.9;" xml:space="preserve">
<style type="text/css">
	.st0{fill:none;stroke:#000000;stroke-width:4.7918;}
	.st1{fill:none;stroke:#231F20;stroke-width:4.7918;}
	.st2{fill:#FFFFFF;}
	.st3{fill:#E1CA07;}
	.st4{display:none;fill:none;stroke:#E192A3;stroke-width:9.4821;}
	.st5{display:none;fill:none;stroke:#E192A3;stroke-width:9.4827;stroke-opacity:0.7795;}
	.st6{fill:none;stroke:#000000;stroke-width:5.0103;}
	.st7{fill:none;stroke:#000000;stroke-width:5.3611;}
	.st8{display:none;fill:#79226C;fill-opacity:0.6388;}
	.st9{display:none;fill:#79226C;fill-opacity:0.7643;}
	.st10{display:none;fill:#79226C;}
	.st11{display:none;fill:#79226C;fill-opacity:0.616;}
	.st12{display:none;fill:#79226C;fill-opacity:0.7414;}
	.st13{display:none;fill:#79226C;fill-opacity:0.7833;}
	.st14{display:none;fill:#79226C;fill-opacity:0.6122;}
	.st15{display:none;fill:#2B0100;fill-opacity:0.1939;}
</style>
<g transform="matrix(.87013 0 0 .85597 -287.1 -432.62)">
	<path class="st0" d="M623.8,697.6c-7-17.9-28-25.1-46-19.6l-2-0.1"/>
	<path class="st1" d="M523.9,517.6c-6.7,10.1-16.6,18.9-18.9,31.2c-0.9,5.2,0.6,10.5,0.5,15.7c0.5,7.8,1.3,15.6,1.8,23.4"/>
	<path d="M594,647.6c4.6,20.9,20.1,33.6-17.5,52.7c-18.2,9.3-8.5,13.4-80.4,17.1c-23,1.2-28.3-2.1-48.1-7.8
		c-30.7-8.8-35.2-46.2-35.2-66.8c0-41.2,37.3-74.5,83.3-74.5S576.7,568.2,594,647.6L594,647.6z"/>
	<g>
		<path d="M494.2,592.8c0,13-10.4,23.5-23.2,23.5c-12.8,0-23.2-10.5-23.2-23.5s10.4-23.5,23.2-23.5
			C483.8,569.2,494.2,579.8,494.2,592.8z"/>
		<path d="M531.5,588.7c0,13-10.4,23.5-23.2,23.5c-12.8,0-23.2-10.5-23.2-23.5s10.4-23.5,23.2-23.5
			C521.1,565.2,531.5,575.7,531.5,588.7z"/>
	</g>
	<path class="st2" d="M492.6,591.2c0,10.6-9.4,19.2-21.1,19.2c-11.6,0-21.1-8.6-21.1-19.2c0-10.6,9.4-19.2,21.1-19.2
		C483.1,572,492.6,580.6,492.6,591.2z"/>
	<path class="st2" d="M526.4,587.9c0,10.6-9.4,19.2-21.1,19.2c-11.6,0-21.1-8.6-21.1-19.2c0-10.6,9.4-19.2,21.1-19.2
		C516.9,568.7,526.4,577.3,526.4,587.9z"/>
	<path d="M485.7,594.5c0,5.2-3.9,9.4-8.8,9.4c-4.9,0-8.8-4.2-8.8-9.4s3.9-9.4,8.8-9.4C481.8,585.1,485.7,589.3,485.7,594.5z"/>
	<path d="M506.3,591.7c0,5.2-3.9,9.4-8.8,9.4c-4.9,0-8.8-4.2-8.8-9.4s3.9-9.4,8.8-9.4C502.3,582.3,506.3,586.5,506.3,591.7z"/>
	<path class="st3" d="M530,610.4c23.6-0.3,34,31.8,20,47.7c-11.8,12.8-27.7,21.2-42.4,30.5c-17,8.5-35.2-1.4-50.6-8.2
		c-14.5-3.5-30.5-15.4-25.8-31.4c3.4-14.7,21.3-18.4,34.7-16.1c12.2,2.5,26.4,5.5,36.1-4.7C510.6,621.8,518,610.5,530,610.4
		L530,610.4z"/>
	<path d="M409.3,553.7c0,6.2-5.3,11.3-11.8,11.3c-6.5,0-11.8-5-11.8-11.3s5.3-11.3,11.8-11.3C404,542.5,409.3,547.5,409.3,553.7z"/>
	<path d="M519.5,558.3c-11.7,5.7-25.1,13.1-38.8,9c-6.6-3.6-13.5-10.1-21.8-6.6c-10.2,3.7-3.2,13.1,4.9,14c14,5.9,30.5,7,45,2.1
		c7.6-1.2,23-7.5,16.3-16C523.5,559.6,521.5,558.9,519.5,558.3L519.5,558.3z"/>
	<path class="st4" d="M586.7,663.7c0,6.3-7.3,11.5-16.3,11.5s-16.3-5.1-16.3-11.5s7.3-11.5,16.3-11.5S586.7,657.3,586.7,663.7z"/>
	<path class="st4" d="M451.6,688.3c0,4.6-5.4,8.3-12,8.3c-6.6,0-12-3.7-12-8.3c0-4.6,5.4-8.3,12-8.3
		C446.3,680,451.6,683.7,451.6,688.3z"/>
	<path class="st5" d="M553,694.3c0,5.6-7.3,10.1-16.3,10.1s-16.3-4.5-16.3-10.1c0-5.6,7.3-10.1,16.3-10.1S553,688.7,553,694.3z"/>
	<path d="M365.2,584.2c0,6.2-5.3,11.3-11.8,11.3c-6.5,0-11.8-5-11.8-11.3c0-6.2,5.3-11.3,11.8-11.3C360,572.9,365.2,578,365.2,584.2
		z"/>
	<path d="M535.7,516.7c0,6.2-5.3,11.3-11.8,11.3c-6.5,0-11.8-5-11.8-11.3c0-6.2,5.3-11.3,11.8-11.3
		C530.4,505.4,535.7,510.4,535.7,516.7z"/>
	<path d="M612.1,558.9c0,6.2-5.3,11.3-11.8,11.3c-6.5,0-11.8-5-11.8-11.3c0-6.2,5.3-11.3,11.8-11.3
		C606.8,547.6,612.1,552.6,612.1,558.9z"/>
	<path d="M661.1,634.8c0,6.2-5.3,11.3-11.8,11.3c-6.5,0-11.8-5-11.8-11.3c0-6.2,5.3-11.3,11.8-11.3
		C655.8,623.6,661.1,628.6,661.1,634.8z"/>
	<path d="M637.5,704.2c0,6.2-5.3,11.3-11.8,11.3c-6.5,0-11.8-5-11.8-11.3c0-6.2,5.3-11.3,11.8-11.3
		C632.3,692.9,637.5,698,637.5,704.2z"/>
	<path d="M566,751.1c0,6.2-5.3,11.3-11.8,11.3c-6.5,0-11.8-5-11.8-11.3c0-6.2,5.3-11.3,11.8-11.3C560.8,739.8,566,744.8,566,751.1z"
		/>
	<path d="M402.4,738.9c0,6.2-5.3,11.3-11.8,11.3c-6.5,0-11.8-5-11.8-11.3c0-6.2,5.3-11.3,11.8-11.3
		C397.2,727.6,402.4,732.7,402.4,738.9z"/>
	<path d="M353.5,656.4c0,6.2-5.3,11.3-11.8,11.3c-6.5,0-11.8-5-11.8-11.3c0-6.2,5.3-11.3,11.8-11.3
		C348.2,645.1,353.5,650.1,353.5,656.4z"/>
	<path class="st6" d="M393.7,554.3c45.3,65.3,50.5,33.1,50.5,33.1"/>
	<path class="st0" d="M354.4,589.8c8.8,8.3,13,20.4,23.5,27.2c3.8,2.3,8.4,4.3,13,3c7.9-1.8,14.5-7.8,22.9-7.4
		c2.2,0.1,4.3,0.7,6.2,1.6"/>
	<path class="st0" d="M348.6,654.5c8,2.2,14.1,8,21.1,12.1c5,3.1,11.1,6,17.2,4.1c5.6-1.8,8.9-7,13.2-10.5
		c6.3-5.8,14-10.9,23.1-11.3"/>
	<path class="st0" d="M391.7,737.9c2.6-9.7,9.6-18.2,18.7-23.1c7.4-5.2,16.4-7.6,24-12.2l0.4-0.3"/>
	<path class="st0" d="M550.4,748.2c-4.3-5.7-6.3-12.6-10.5-18.3c-7.5-8.1-17.9-12.7-26.6-19.3c-1.1-1.1-2.2-2.3-3-3.7"/>
	<path class="st0" d="M652.2,633.9c-22.8,10-48.6,8.6-71.4-0.3l-3.1-0.6"/>
	<path class="st7" d="M595.4,561.7c-1.7,18.4-18.6,30.1-33,24.9c-6.9-1.3-14.1-3.1-20.9-0.2"/>
	<path class="st8" d="M477,708.8c0,1.9-3.1,3.5-6.9,3.5c-3.8,0-6.9-1.6-6.9-3.5s3.1-3.5,6.9-3.5C473.9,705.3,477,706.8,477,708.8z"
		/>
	<path class="st9" d="M465.3,701.5c0,1.4-1.3,2.5-2.9,2.5c-1.6,0-2.9-1.1-2.9-2.5c0-1.4,1.3-2.5,2.9-2.5
		C464,698.9,465.3,700.1,465.3,701.5z"/>
	<path class="st10" d="M460.6,707.2c0,0.9-0.9,1.6-1.9,1.6c-1.1,0-1.9-0.7-1.9-1.6s0.9-1.6,1.9-1.6
		C459.8,705.6,460.6,706.3,460.6,707.2z"/>
	<path class="st11" d="M457,702.8c0,1-0.8,1.7-1.7,1.7c-0.9,0-1.7-0.8-1.7-1.7c0-1,0.8-1.7,1.7-1.7C456.2,701,457,701.8,457,702.8z"
		/>
	<path class="st10" d="M473.6,701.7c0,1-0.9,1.7-1.9,1.7c-1.1,0-1.9-0.8-1.9-1.7c0-1,0.9-1.7,1.9-1.7
		C472.8,699.9,473.6,700.7,473.6,701.7z"/>
	<path class="st10" d="M576.8,684.4c0,1.1-1,2-2.1,2s-2.1-0.9-2.1-2s1-2,2.1-2S576.8,683.4,576.8,684.4z"/>
	<path class="st10" d="M582.8,684.8c0,1-0.9,1.9-1.9,1.9s-1.9-0.8-1.9-1.9c0-1,0.9-1.9,1.9-1.9S582.8,683.8,582.8,684.8z"/>
	<path class="st12" d="M579.6,689.7c0,1.3-1,2.4-2.3,2.4c-1.2,0-2.3-1.1-2.3-2.4s1-2.4,2.3-2.4C578.6,687.3,579.6,688.4,579.6,689.7
		z"/>
	<path class="st13" d="M481.8,702.3c-1.8-3.3-9.7,0.2-4.4,2.3c4,1.8-1.8,10.5,4.7,8.7C486.8,711.3,486.3,704.3,481.8,702.3
		L481.8,702.3z"/>
	<path class="st14" d="M446.5,617.1c0,4.6-4.7,8.3-10.5,8.3c-5.8,0-10.5-3.7-10.5-8.3c0-4.6,4.7-8.3,10.5-8.3
		C441.9,608.8,446.5,612.5,446.5,617.1z"/>
	<path class="st14" d="M549.3,583.3c-9.9-0.1-18.7,8.5-19.7,18.3c0.9,3.4,4.8,4.1,7.8,3.8c3.4-0.1,7.5-0.4,9.9,2.6
		c2.4,1.6,4.7,3.4,6.2,6c2.5,3.8,4,8.4,7.4,11.5c3.1,0.6,5.4-2.5,6.7-4.9c2.2-4.8,2.8-10.2,2.3-15.4c-1-8.8-6.2-17.7-14.8-20.9
		C553.3,583.6,551.3,583.3,549.3,583.3L549.3,583.3z"/>
	<path class="st2" d="M448.1,633.4c0,0,5.7-1,8.7-1s8.7,0.4,8.7,0.4l1.1,0.5l-0.2,0l-1.8,15.5c-0.4,1-1.4,1.6-2.8,1.4l-10.8-0.3
		c-0.6-0.2-1-0.7-1-1.3L448.1,633.4z"/>
	<path class="st2" d="M495.1,633.1L495.1,633.1h0.2H495.1z M495.1,633.2l-7.9,2.1l-9.9-0.3l1.5,14.4c0.4,0.7,1.1,1,1.8,1.1l10,0.5
		c1.4,0,2.1-0.6,2.8-1.4l0.1-0.9c-0.1,0-0.2,0-0.3,0c-0.9,0-1.7-0.6-1.7-1.4s0.8-1.4,1.7-1.4c0.2,0,0.4,0.1,0.6,0.1L495.1,633.2
		L495.1,633.2z"/>
	<path class="st15" d="M395.8,544.8c-4.3,0-7.8,3.7-7.8,8.3c0,3.7,2.3,6.8,5.4,7.9c-0.4-1.3-0.7-2.8-0.7-4.3c0-5.5,2.9-10,6.8-10.8
		C398.4,545.2,397.2,544.8,395.8,544.8L395.8,544.8z"/>
	<path class="st15" d="M351.6,575.4c-4.3,0-7.8,3.7-7.8,8.3c0,3.7,2.3,6.8,5.4,7.9c-0.4-1.3-0.7-2.8-0.7-4.3c0-5.5,2.9-10,6.8-10.8
		C354.2,575.8,352.9,575.4,351.6,575.4L351.6,575.4z"/>
	<path class="st15" d="M336.8,649c-4.1,1.4-6.2,6-4.8,10.4c1.2,3.5,4.3,5.7,7.7,5.7c-0.8-1.1-1.5-2.4-2-3.9
		c-1.7-5.2-0.4-10.4,2.9-12.4C339.4,648.5,338.1,648.5,336.8,649L336.8,649z"/>
	<path class="st15" d="M382.7,733.6c-3.2,2.9-3.2,8.1-0.1,11.4c2.5,2.7,6.3,3.4,9.3,2.1c-1.2-0.7-2.4-1.6-3.5-2.7
		c-3.7-4-4.6-9.3-2.4-12.5C384.8,732.1,383.7,732.6,382.7,733.6L382.7,733.6z"/>
	<path class="st15" d="M549.3,759.2c3.1,3,8.2,2.7,11.4-0.7c2.5-2.7,3-6.5,1.5-9.5c-0.6,1.3-1.4,2.5-2.5,3.6c-3.8,4-9,5.2-12.4,3.2
		C547.7,757.2,548.4,758.3,549.3,759.2L549.3,759.2z"/>
	<path class="st15" d="M624.5,712.8c4.1,1.5,8.6-0.9,10.2-5.2c1.3-3.5,0.2-7.2-2.4-9.3c-0.1,1.4-0.3,2.9-0.8,4.3
		c-1.9,5.1-6.1,8.4-10,7.9C622.2,711.6,623.3,712.4,624.5,712.8L624.5,712.8z"/>
	<path class="st15" d="M654.9,642.5c3.9-1.8,5.5-6.7,3.6-10.8c-1.5-3.4-4.9-5.2-8.2-4.9c0.9,1,1.8,2.3,2.4,3.7
		c2.3,5,1.5,10.3-1.6,12.7C652.4,643.2,653.7,643,654.9,642.5L654.9,642.5z"/>
	<path class="st15" d="M609.1,562.3c2.4-3.6,1.1-8.6-2.7-11.1c-3.1-2-7-1.8-9.6,0.3c1.3,0.4,2.7,1,4,1.8c4.6,3,6.8,7.9,5.4,11.6
		C607.3,564.2,608.3,563.4,609.1,562.3L609.1,562.3z"/>
	<path class="st15" d="M531.8,512.8c-1.1-4.2-5.6-6.6-10.1-5.4c-3.6,1-6,4-6.2,7.3c1.2-0.8,2.5-1.4,4-1.8c5.3-1.4,10.4,0.2,12.2,3.7
		C532.1,515.4,532.1,514.1,531.8,512.8L531.8,512.8z"/>
</g>
</svg>
