<?xml version="1.0" encoding="iso-8859-1"?>
<!-- Generator: Adobe Illustrator 19.0.0, SVG Export Plug-In . SVG Version: 6.00 Build 0)  -->
<svg version="1.1" id="Capa_1" xmlns="http://www.w3.org/2000/svg" xmlns:xlink="http://www.w3.org/1999/xlink" x="0px" y="0px"
	 viewBox="0 0 512.001 512.001" style="enable-background:new 0 0 512.001 512.001;" xml:space="preserve">
<path style="fill:#DBD9DC;" d="M363.355,90.839V57.806c0-18.243-14.789-33.032-33.032-33.032H33.032v66.064L363.355,90.839
	L363.355,90.839z"/>
<path style="fill:#C9C6CA;" d="M33.032,24.774L33.032,24.774C14.789,24.774,0,39.563,0,57.806V379.87
	c0,4.561,3.697,8.258,8.258,8.258h57.806V57.806C66.064,39.563,51.275,24.774,33.032,24.774z"/>
<path style="fill:#DBD9DC;" d="M66.064,487.226H41.29c-4.561,0-8.258-3.697-8.258-8.258V82.581c0-4.561,3.697-8.258,8.258-8.258
	h24.774V487.226z"/>
<path style="fill:#EDEBED;" d="M355.097,487.226H66.064V74.323h297.29v404.645C363.355,483.529,359.658,487.226,355.097,487.226z"/>
<path style="fill:#FFE17D;" d="M305.989,380.261l-34.89,19.383c-3.623,2.013-7.617-1.981-5.604-5.604l19.383-34.89
	c1.863-3.354,4.185-6.431,6.898-9.144l194.448-194.448c3.225-3.225,8.454-3.225,11.679,0l11.679,11.679
	c3.225,3.225,3.225,8.454,0,11.679L315.133,373.363C312.42,376.076,309.342,378.397,305.989,380.261z"/>
<path style="fill:#FFD164;" d="M497.903,155.557c-3.225-3.225-8.454-3.225-11.679,0L291.776,350.006
	c-2.713,2.713-5.034,5.791-6.898,9.145l-19.383,34.89c-1.052,1.894-0.446,3.867,0.874,5.053L503.903,161.56L497.903,155.557z"/>
<path style="fill:#6F6571;" d="M305.548,165.161H123.871c-4.565,0-8.258-3.698-8.258-8.258s3.694-8.258,8.258-8.258h181.677
	c4.565,0,8.258,3.698,8.258,8.258C313.806,161.464,310.113,165.161,305.548,165.161z"/>
<path style="fill:#5D5360;" d="M305.548,206.452H123.871c-4.565,0-8.258-3.698-8.258-8.258s3.694-8.258,8.258-8.258h181.677
	c4.565,0,8.258,3.698,8.258,8.258S310.113,206.452,305.548,206.452z"/>
<path style="fill:#6F6571;" d="M305.548,247.742H123.871c-4.565,0-8.258-3.698-8.258-8.258s3.694-8.258,8.258-8.258h181.677
	c4.565,0,8.258,3.698,8.258,8.258S310.113,247.742,305.548,247.742z"/>
<path style="fill:#5D5360;" d="M305.548,289.032H123.871c-4.565,0-8.258-3.698-8.258-8.258s3.694-8.258,8.258-8.258h181.677
	c4.565,0,8.258,3.698,8.258,8.258C313.806,285.335,310.113,289.032,305.548,289.032z"/>
<path style="fill:#6F6571;" d="M256,330.323H123.871c-4.565,0-8.258-3.698-8.258-8.258s3.694-8.258,8.258-8.258H256
	c4.565,0,8.258,3.698,8.258,8.258S260.564,330.323,256,330.323z"/>
<path style="fill:#FFEDB1;" d="M291.776,350.006c-2.713,2.713-5.034,5.791-6.898,9.145l-19.383,34.89
	c-2.013,3.623,1.981,7.617,5.604,5.604l34.89-19.383c3.354-1.863,6.431-4.185,9.144-6.898l1.75-1.75l-23.357-23.357L291.776,350.006
	z"/>
<path style="fill:#FF8087;" d="M492.063,196.432l17.518-17.518c3.225-3.225,3.225-8.454,0-11.679l-11.678-11.678
	c-3.225-3.225-8.454-3.225-11.679,0l-17.518,17.518L492.063,196.432z"/>
<path style="fill:#E6646E;" d="M497.903,155.557c-3.225-3.225-8.454-3.225-11.679,0l-17.518,17.518l11.841,11.84l23.357-23.357
	L497.903,155.557z"/>
<path style="fill:#5D5360;" d="M275.644,375.772l-10.149,18.268c-2.013,3.623,1.981,7.617,5.604,5.604l18.267-10.148
	L275.644,375.772z"/>
<g>
</g>
<g>
</g>
<g>
</g>
<g>
</g>
<g>
</g>
<g>
</g>
<g>
</g>
<g>
</g>
<g>
</g>
<g>
</g>
<g>
</g>
<g>
</g>
<g>
</g>
<g>
</g>
<g>
</g>
</svg>
