<?xml version="1.0" encoding="utf-8"?>
<!-- Generator: Adobe Illustrator 22.1.0, SVG Export Plug-In . SVG Version: 6.00 Build 0)  -->
<svg version="1.1" id="Layer_1" xmlns="http://www.w3.org/2000/svg" xmlns:xlink="http://www.w3.org/1999/xlink" x="0px" y="0px"
	 viewBox="0 0 511 511" style="enable-background:new 0 0 511 511;" xml:space="preserve">
<style type="text/css">
	.st0{fill:#F94141;}
	.st1{fill:#E22B2B;}
	.st2{display:none;fill:#357FBC;}
	.st3{display:none;fill:#589CE0;}
	.st4{display:none;fill:#E8B182;}
	.st5{display:none;fill:#FFD0A6;}
	.st6{display:none;fill:#5B5B68;}
	.st7{display:none;fill:#40404C;}
	.st8{display:none;}
</style>
<path class="st0" d="M270.7,397.7l-2.8,1.2L27.4,504.3c-16-16-17.3-30.1-13.1-45.1c1.6-5.6,3.9-11.3,6.6-17.2
	c5.8-13,13.1-27.3,17.1-44.2C48.7,352,7.6,342.9,7.6,342.9c15.9-26.6,88-40.4,155.7-29.2c7.6,1.3,15.2,2.8,22.6,4.8l75.7,7.7l8.3,65
	L270.7,397.7z"/>
<path class="st1" d="M269.9,391.1l-2,7.7L27.4,504.3c-16-16-17.3-30.1-13.1-45.1c1.2-6.1,3.5-11.9,6.6-17.2
	c20.7-35.9,78.3-56,108.3-63c27.4-6.4,42.6-38.4,34-65.1c7.6,1.3,15.2,2.8,22.6,4.8l75.7,7.7L269.9,391.1z"/>
<path class="st2" d="M431.3,446.6v57.7H159.1v-57.7c0-75.2,60.9-136.1,136.1-136.1c10.6,0,21,1.2,30.9,3.5
	c25.2,5.8,47.7,18.7,65.3,36.3C416,374.9,431.3,409,431.3,446.6z"/>
<path class="st3" d="M431.3,446.6v57.7H220.9v-57.7c0-64.5,44.9-118.6,105.2-132.6c25.2,5.8,47.7,18.7,65.3,36.3
	C416,374.9,431.3,409,431.3,446.6z"/>
<path class="st4" d="M159,164.8c-6.8-3.6-14.5-5.6-22.7-5.6c-27.2,0-49.2,22-49.2,49.2s22,49.2,49.2,49.2c8.5,0,16.5-2.2,23.5-5.9
	h271.5c7,3.8,15,5.9,23.5,5.9c27.2,0,49.2-22,49.2-49.2s-22-49.2-49.2-49.2c-8.2,0-15.9,2-22.7,5.6"/>
<path class="st4" d="M431.3,144.7v92.7c0,66.3-47.4,121.6-110.3,133.6c-8.4,1.6-17,2.5-25.9,2.5c-75.2,0-136.1-60.9-136.1-136.1
	v-92.7C159.1,69.5,220,8.6,295.1,8.6c8.8,0,17.5,0.8,25.9,2.5c27.2,5.2,51.6,18.6,70.4,37.4C416,73.1,431.3,107.1,431.3,144.7z"/>
<path class="st5" d="M431.3,144.7v92.7c0,66.3-47.4,121.6-110.3,133.6c-62.8-12.1-110.3-67.3-110.3-133.6v-92.7
	c0-66.3,47.4-121.6,110.3-133.7c27.2,5.2,51.6,18.6,70.4,37.4C416,73.1,431.3,107.1,431.3,144.7z"/>
<path class="st6" d="M431.3,144.7v20.1c-161.1-0.2-214.7-66.1-214.7-66.1c0,27.4-27.4,56.3-57.5,66.1v-20.1
	C159.1,69.5,220,8.6,295.1,8.6c8.8,0,17.5,0.8,25.9,2.5c27.2,5.2,51.6,18.6,70.4,37.4C416,73.1,431.3,107.1,431.3,144.7z"/>
<path class="st7" d="M321,11.1c-48.1,9.3-87.2,43.9-102.9,89.4c-1-1.1-1.5-1.7-1.5-1.7c0,27.4-27.4,56.3-57.5,66.1v-20.1
	C159,69.5,220,8.6,295.1,8.6C304,8.6,312.6,9.4,321,11.1z"/>
<path class="st8" d="M454.2,151.6c-5.2,0-10.4,0.7-15.4,2.1v-9.1c0-38.4-14.9-74.5-42.1-101.6c-3-3-7.8-3-10.8,0c-3,3-3,7.8,0,10.8
	c24.3,24.3,37.6,56.5,37.6,90.9v12.4c-44.4-0.7-104.7-7-155.6-31.7c-32.2-15.6-45.5-31.4-45.6-31.6c-2-2.5-5.4-3.4-8.4-2.4
	c-3,1.1-5.1,3.9-5.1,7.2c0,19.9-18.5,43.2-42.3,54.8v-8.8c0-70.9,57.6-128.5,128.5-128.5c24.1,0,47.7,6.7,68,19.5
	c3.6,2.2,8.3,1.1,10.5-2.4c2.2-3.6,1.1-8.2-2.4-10.5C348.5,8.5,322.2,1,295.1,1c-79.2,0-143.7,64.5-143.7,143.7v9
	c-4.9-1.4-10-2.1-15.1-2.1c-31.3,0-56.8,25.5-56.8,56.8c0,31.3,25.5,56.8,56.8,56.8c5.9,0,11.8-0.9,17.3-2.7
	c2.8,16,8.3,31,15.9,44.7c-30.9-5.7-64.5-6.6-94.8-2.2c-37.1,5.3-64,17.7-73.7,34.1c-1.2,2.1-1.4,4.6-0.5,6.9c1,2.2,2.9,3.9,5.3,4.4
	c0.1,0,8.9,2.1,16.2,8.9c9.3,8.6,12.2,20.9,8.5,36.7c-3.1,13.4-8.5,25-13.6,36.2c-11.7,25.5-22.8,49.6,5,77.5
	c1.5,1.5,3.4,2.2,5.4,2.2c1,0,2.1-0.2,3.1-0.6l28.4-12.5c3.8-1.7,5.6-6.2,3.9-10c-1.7-3.8-6.2-5.6-10-3.9l-23.5,10.3
	c-16-18.5-9.2-33.2,1.6-56.6c5.2-11.3,11.1-24.2,14.6-39.1c3.8-16.3,2.1-30.5-5.2-42c-5.6-8.9-13.4-14.4-19.9-17.7
	c10.9-8.9,31.3-16.1,56.5-19.8c33.6-4.8,71.6-2.9,104.6,5.3c4.6,5.9,9.6,11.5,15.1,16.6c-27.6,26-43.8,61.6-45.1,99.6l-74,32.4
	c-3.8,1.7-5.6,6.2-3.9,10c1.3,2.9,4,4.6,7,4.6c1,0,2.1-0.2,3-0.6l67.8-29.7v46.1c0,4.2,3.4,7.6,7.6,7.6h272.2c4.2,0,7.6-3.4,7.6-7.6
	v-57.7c0-38.4-15-74.5-42.1-101.6c-1-1-2.1-2-3.1-3c22.1-20.8,37.5-48.4,43-79.5c5.6,1.8,11.6,2.8,17.6,2.8
	c31.3,0,56.8-25.5,56.8-56.8C511,177.1,485.5,151.6,454.2,151.6z M136.3,250c-22.9,0-41.6-18.6-41.6-41.6s18.6-41.6,41.6-41.6
	c5.3,0,10.3,1,15.1,2.8v12.4c-4.5-2.6-9.6-4.1-15.1-4.1c-16.7,0-30.3,13.6-30.3,30.3c0,16.7,13.6,30.4,30.3,30.4
	c4.2,0,7.6-3.4,7.6-7.6c0-4.2-3.4-7.6-7.6-7.6c-8.3,0-15.1-6.8-15.1-15.1c0-8.3,6.8-15.1,15.1-15.1c8.3,0,15.1,6.7,15.1,15.1v29.1
	c0,3.2,0.1,6.4,0.3,9.6C146.9,248.9,141.6,250,136.3,250z M386,355.7c24.3,24.3,37.6,56.5,37.6,90.9v50.1h-257v-50.1
	c0-36.2,15.1-70.4,41.7-94.7c24.1,18.4,54.2,29.3,86.8,29.3c32.6,0,62.7-10.9,86.8-29.3C383.3,353.1,384.7,354.4,386,355.7z
	 M295.1,365.9c-70.9,0-128.5-57.6-128.5-128.5v-28.9c0,0,0-0.1,0-0.1c0-0.1,0-0.1,0-0.2v-38.1c14.2-5.6,27.6-15,38.1-26.7
	c8.2-9.2,14-19.2,17-29.2c8,6.6,20.5,15.5,38.5,24.4c30.4,14.9,83.1,32.6,163.4,33.8v65C423.6,308.2,366,365.9,295.1,365.9z
	 M454.2,250c-5.4,0-10.7-1.1-15.7-3.1c0.2-3.1,0.3-6.3,0.3-9.5v-27.2c0,0,0-1.2,0-1.8c0-8.3,7-15.1,15.4-15.1s15.1,6.8,15.1,15.1
	c0,8.4-6.8,15.1-15.1,15.1c-4.2,0-7.6,3.4-7.6,7.6c0,4.2,3.4,7.6,7.6,7.6c16.7,0,30.3-13.6,30.3-30.3s-13.6-30.3-30.3-30.3
	c-5.6,0-10.9,1.5-15.4,4.2v-12.5c4.9-1.9,10-2.9,15.4-2.9c22.9,0,41.6,18.6,41.6,41.6S477.1,250,454.2,250z"/>
<path class="st8" d="M327.6,269c-17.7,17.7-46.5,17.7-64.2,0c-3-3-7.8-3-10.8,0c-3,3-3,7.8,0,10.8c11.8,11.8,27.3,17.7,42.8,17.7
	s31-5.9,42.8-17.7c3-3,3-7.8,0-10.8C335.4,266,330.6,266,327.6,269z"/>
<path class="st8" d="M235.9,188.1c-4.2,0-7.6,3.4-7.6,7.6v33.5c0,4.2,3.4,7.6,7.6,7.6c4.2,0,7.6-3.4,7.6-7.6v-33.5
	C243.5,191.5,240.1,188.1,235.9,188.1z"/>
<path class="st8" d="M354.4,188.1c-4.2,0-7.6,3.4-7.6,7.6v33.5c0,4.2,3.4,7.6,7.6,7.6c4.2,0,7.6-3.4,7.6-7.6v-33.5
	C362,191.5,358.6,188.1,354.4,188.1z"/>
<path d="M145.7,409.3c-1.1-4.1-5.2-6.5-9.3-5.4c-0.5,0.1-46.2,12.3-80.5,23.4c-4,1.3-6.2,5.6-4.9,9.6c1,3.2,4,5.3,7.2,5.3
	c0.8,0,1.6-0.1,2.3-0.4c33.9-11,79.3-23.1,79.7-23.2C144.4,417.5,146.8,413.4,145.7,409.3z"/>
</svg>
