<?xml version="1.0" encoding="iso-8859-1"?>
<!-- Generator: Adobe Illustrator 19.0.0, SVG Export Plug-In . SVG Version: 6.00 Build 0)  -->
<svg version="1.1" id="Capa_1" xmlns="http://www.w3.org/2000/svg" xmlns:xlink="http://www.w3.org/1999/xlink" x="0px" y="0px"
	 viewBox="0 0 468.293 468.293" style="enable-background:new 0 0 468.293 468.293;" xml:space="preserve">
<path style="fill:#64798A;" d="M19.431,443.317V24.976C19.431,11.182,30.613,0,44.406,0h291.821
	c13.794,0,24.976,11.182,24.976,24.976v418.341c0,13.794-11.182,24.976-24.976,24.976H44.406
	C30.613,468.293,19.431,457.111,19.431,443.317z"/>
<rect x="34.217" y="51.25" style="fill:#EBF0F3;" width="312.195" height="343.096"/>
<g>
	<circle style="fill:#2F4859;" cx="190.314" cy="431.329" r="24.976"/>
	<path style="fill:#2F4859;" d="M202.321,31.87h-74.927c-3.448,0-6.244-2.795-6.244-6.244v0c0-3.448,2.795-6.244,6.244-6.244h74.927
		c3.448,0,6.244,2.795,6.244,6.244v0C208.565,29.075,205.77,31.87,202.321,31.87z"/>
	<circle style="fill:#2F4859;" cx="228.277" cy="25.625" r="6.244"/>
	<circle style="fill:#2F4859;" cx="253.253" cy="25.625" r="6.244"/>
</g>
<path style="fill:#D5D6DB;" d="M438.264,242.415h-49.951V59.825c0-3.448,2.795-6.244,6.244-6.244h37.463
	c3.448,0,6.244,2.795,6.244,6.244V242.415z"/>
<path style="fill:#64798A;" d="M438.264,68.022h-49.951v-8.197c0-3.448,2.795-6.244,6.244-6.244h37.463
	c3.448,0,6.244,2.795,6.244,6.244V68.022z"/>
<polyline style="fill:#3A556A;" points="438.264,369.065 438.264,242.415 388.313,242.415 388.313,369.065 "/>
<polyline style="fill:#64798A;" points="388.313,369.065 408.688,394.326 417.889,394.326 438.264,369.065 "/>
<path style="fill:#3A556A;" d="M413.289,37.971c-8.621,0-15.61,6.989-15.61,15.61h31.22C428.898,44.96,421.91,37.971,413.289,37.971
	z"/>
<g>
	<path style="fill:#2F4859;" d="M438.264,311.143h4.354c3.448,0,6.244-2.796,6.244-6.244v-27.601c0-3.448-2.795-6.244-6.244-6.244
		h-4.354V311.143z"/>
	<path style="fill:#2F4859;" d="M413.289,407.633L413.289,407.633c-2.536,0-4.592-2.056-4.592-4.592v-8.716h9.184v8.716
		C417.881,405.577,415.825,407.633,413.289,407.633z"/>
</g>
<g>
</g>
<g>
</g>
<g>
</g>
<g>
</g>
<g>
</g>
<g>
</g>
<g>
</g>
<g>
</g>
<g>
</g>
<g>
</g>
<g>
</g>
<g>
</g>
<g>
</g>
<g>
</g>
<g>
</g>
</svg>
