<svg height="490pt" viewBox="0 -10 490.66667 490" width="490pt" xmlns="http://www.w3.org/2000/svg"><path d="m437.332031.332031h-384c-29.394531 0-53.332031 23.9375-53.332031 53.335938v277.332031c0 29.398438 23.9375 53.332031 53.332031 53.332031h384c29.398438 0 53.335938-23.933593 53.335938-53.332031v-277.332031c0-29.398438-23.9375-53.335938-53.335938-53.335938zm0 0" fill="#455a64"/><path d="m53.332031 21.667969h384c17.644531 0 32 14.355469 32 32v224h-448v-224c0-17.644531 14.359375-32 32-32zm0 0" fill="#eceff1"/><path d="m416.425781 341.667969c-5.867187 0-10.773437-4.78125-10.773437-10.667969s4.652344-10.667969 10.5625-10.667969h.210937c5.890625 0 10.667969 4.78125 10.667969 10.667969s-4.777344 10.667969-10.667969 10.667969zm0 0"/><path d="m245.332031 352.332031c-11.773437 0-21.332031-9.554687-21.332031-21.332031s9.558594-21.332031 21.332031-21.332031c11.777344 0 21.335938 9.554687 21.335938 21.332031s-9.558594 21.332031-21.335938 21.332031zm0-21.351562 10.667969.019531zm0 0"/><path d="m437.332031 384.332031h-384c-29.417969 0-53.332031-23.914062-53.332031-53.332031v-277.332031c0-29.421875 23.914062-53.335938 53.332031-53.335938h384c29.421875 0 53.335938 23.914063 53.335938 53.335938v277.332031c0 29.417969-23.914063 53.332031-53.335938 53.332031zm-384-362.664062c-17.640625 0-32 14.355469-32 32v277.332031c0 17.644531 14.359375 32 32 32h384c17.644531 0 32-14.355469 32-32v-277.332031c0-17.644531-14.355469-32-32-32zm0 0"/><path d="m394.667969 469.667969h-298.667969c-5.886719 0-10.667969-4.78125-10.667969-10.667969s4.78125-10.667969 10.667969-10.667969h298.667969c5.886719 0 10.664062 4.78125 10.664062 10.667969s-4.777343 10.667969-10.664062 10.667969zm0 0"/><path d="m480 299h-469.332031c-5.890625 0-10.667969-4.777344-10.667969-10.667969 0-5.886719 4.777344-10.664062 10.667969-10.664062h469.332031c5.886719 0 10.667969 4.777343 10.667969 10.664062 0 5.890625-4.78125 10.667969-10.667969 10.667969zm0 0"/><path d="m245.332031 469.667969c-5.886719 0-10.664062-4.78125-10.664062-10.667969v-85.332031c0-5.890625 4.777343-10.667969 10.664062-10.667969 5.890625 0 10.667969 4.777344 10.667969 10.667969v85.332031c0 5.886719-4.777344 10.667969-10.667969 10.667969zm0 0"/></svg>