<?xml version="1.0" encoding="UTF-8"?>
<svg viewBox="0 0 1061 943" xmlns="http://www.w3.org/2000/svg">
 <g fill-rule="evenodd" stroke-width=".5">
  <g fill="#fff" stroke="#fff">
   <path d="m0 290.5v-290.5h525v0.2q0 0.3-3.5 0.8t-11 4.5-11.7 10.3q-4.3 6.2-5.3 13.7t0.5 13 5.8 11.3q4.2 5.7 11.7 9.4l7.5 3.8-0.2 1.5q-0.3 1.5-23.3 70l-23 68.5-0.3 1-0.2 1-3.2 9q-3.3 9-3.8 10.5l-0.5 1.5-0.5 1-0.5 1-0.3 0.2-0.2 0.3h-4l-0.2-0.3-0.3-0.2-0.3-0.2-0.2-0.3-0.2-0.3-0.3-0.2-0.3-0.2-0.2-0.3-0.2-0.3-0.3-0.2-0.5-1q-0.5-1-39.5-52t-51.3-67q-12.2-16-13.2-16t-3-3.5l-2-3.5 4.2-6.5q4.3-6.5 5.3-9.5t0.5-10.5-1-9l-0.5-1.5-0.5-1.5-0.5-1.5-0.3-1-0.2-1h-2v-2h-3l-0.2 4.5q-0.3 4.5-1.3 7.5t-7.7 8.2q-6.8 5.3-15.3 4.3t-13.7-6.3q-5.3-5.2-5.3-14.7v-9.5l0.5-1 0.5-1 0.5-1 0.5-1 0.3-1 0.2-1-1 0.2-1 0.3-1 0.5-1 0.5-1 0.5-1 0.5-1 0.5-1 0.5-0.2 0.3-0.3 0.2-0.3 0.2-0.2 0.3-4.2 4.7q-4.3 4.8-6.3 9.8t-1.5 13.5 4 14.5 9.2 10.2q5.8 4.3 10.8 5.8t10 1.8l5 0.2-0.2 54-0.3 54-0.3 1-0.2 1-3-0.2q-3-0.3-38.5-2.6l-35.5-2.2-1.8-8q-1.7-8-7-14.2-5.2-6.3-12.2-9.3t-15.5-3-15.5 3-11.8 8.7q-4.7 5.8-6.2 9.8t-1 13 4 15 9.8 10.2q6.2 4.3 14.7 5.8t12 1 5-0.8l1.5-0.2h2q2 0 19.8 54 17.7 54 18 54.2l0.2 0.3-0.2 0.3-0.3 0.2-0.3 1.5-0.2 1.5-1 0.2-1 0.3-2.5 0.5q-2.5 0.5-75.5 11.8-73 11.2-73 7.7v-3.5l-1 0.2-1 0.3-0.2 0.3-0.3 0.2-0.5 1.5q-0.5 1.5-5.8 7.3-5.2 5.7-12.2 9.7t-15.5 3-13.5-3.7q-5-2.8-5-3.8t-1-1-3.8-5q-2.7-5-4.2-12.5l-1.5-7.5-0.3-0.2-0.2-0.3-0.2-0.3-0.3-0.2-0.3 0.2-0.2 0.3-0.2 0.3-0.3 0.2-0.3 0.2-0.2 0.3-0.2 0.3-0.3 0.2-0.5 1-0.5 1-0.5 1.5-0.5 1.5v8.5q0 8.5 3.7 15.3 3.8 6.7 7.8 10.2t9.5 5.5 15.5 1.5 17.5-4.5 53.5 21 48 25.3q2 0.2 2 1.2t5.5 3.8q5.5 2.7 6 3.2t2.5 1l2 0.5 0.2 0.3 0.3 0.2 0.3 0.2 0.2 0.3 0.5 0.3 0.5 0.2h0.5l0.3 0.2 0.2 0.3 0.2 0.3 0.3 0.2v3l-0.3 0.2-0.2 0.3-1 0.5-1 0.5-0.2 0.3-0.3 0.2-36.5 26.5q-36.5 26.5-41 30t-4.8 4l-0.2 0.5-6.5 4q-6.5 4-6.5 5t-3.5 2.5-3.5 2.5-1.5 1-1.5 1-3.5 2.5-3.5 2.5-18 13.2q-18 12.3-18.5 12.6l-0.5 0.2-6.5-4.2q-6.5-4.3-9.5-5.3t-14-0.5-18 5-9.8 8.8q-2.7 4.2-3.2 5.2l-0.5 1-0.5 1-0.5 1-0.5 2.5-0.5 2.5h-0.5v-290.5z"/>
   <path d="m538 1.2l-3-1.2h526v483h-0.2q-0.3 0-2.3-6.5l-2-6.5-0.3-1-0.2-1h-2v-2h-3l-0.2 2-0.3 2-0.5 5q-0.5 5-1 6t-6.2 5.8q-5.8 4.7-13.8 4.7t-14.2-5.3q-6.3-5.2-6.8-14.2t1-13.5-0.8-3.7l-2.2 0.7-0.2 0.3-0.3 0.2-0.3 0.2-0.2 0.3-1 0.5-1 0.5-0.2 0.3-0.3 0.2-0.3 0.2-0.2 0.3-1 0.5q-1 0.5-5.5 6.2l-4.5 5.8-3-0.2q-3-0.3-79.5-11.8l-76.5-11.5-1.5-0.3-1.5-0.2 0.2-2 0.3-2 0.3-0.2 0.2-0.3 0.2-0.3 0.3-0.2 0.3-0.2 0.2-0.3 0.2-0.3 0.3-0.2 0.3-0.2 0.2-0.3 61.2-60.3q61.3-60.2 73.6-72.4 12.2-12.3 12.2-12.6v-0.2h0.2q0.3 0 3.6 1.2 3.2 1.3 11.7 1.8t12-0.5 11-5.7q7.5-4.8 9.3-7.8 1.7-3 3.7-10t1-14-5-13-11.3-10.2q-7.2-4.3-16.7-4.8t-17.5 3-12.2 8.8q-4.3 5.2-6.6 13.7l-2.2 8.5-44.5 0.2q-44.5 0.3-67 1l-22.5 0.8-13 0.2q-13 0.3-31.2 0-18.3-0.2-19-55.2l-0.8-55 8-1.8q8-1.7 13-5.2t8.2-7.8q3.3-4.2 5.3-10.7t1-13-1.5-8l-0.5-1.5-0.5-1-0.5-1-0.3-0.2-0.2-0.3-0.2-0.3-0.3-0.2-0.3-0.2-0.2-0.3-0.2-0.3-0.3-0.2-0.3-0.2-0.2-0.3-0.2-0.3-0.3-0.2-0.3-0.2-0.2-0.3-1-0.3-1-0.2-0.2 5q-0.3 5-0.8 7.5t-2 4.5-6.8 5.8q-5.2 3.7-13.2 2.7t-13.8-5.7q-5.7-4.8-5.7-14.8v-10l0.5-1 0.5-1 0.5-1 0.5-1 0.3-1 0.2-1-1.5 0.2-1.5 0.3-1 0.5-1 0.5-1 0.5-1 0.5-0.2 0.3-0.3 0.2-0.3 0.2-0.2 0.3-4.8 4.7q-4.7 4.8-7.2 12.3t-1.5 14.5 4 12 3.3 5.5l0.2 0.5-0.2 1q-0.3 1-40.8 41.5l-40.5 40.5-0.3 0.2-0.2 0.3-1 0.3-1 0.2-1.5-0.2-1.5-0.3-0.2-0.3-0.3-0.2-0.5-1q-0.5-1-40-64.5t-41.2-68q-1.8-4.5-2.8-4.5t-1.2-1.5q-0.3-1.5-5.8-10.5t-6.8-12.5l-1.2-3.5h0.2q0.3 0 3-2.2 2.8-2.3 7-8.6 4.3-6.2 4.8-16.2t-0.5-13-4.7-7.8q-3.8-4.7-9.3-8.2l-5.5-3.5-1-0.5q-1-0.5-4-1.8z"/>
   <path d="m1060.8 488h0.2v455h-517v-0.2q0-0.3 6-2.3t11.2-6.3q5.3-4.2 8.8-10.2t4-13-1.5-13-8.7-12.5l-6.8-6.5 0.2-2.5q0.3-2.5 0.8-3t28.8-59l28.2-58.5 0.5-0.2 0.5-0.3 0.2-0.3 0.3-0.2 0.5-1 0.5-1 0.5-1 0.5-1 0.5-1q0.5-1 6.2-13l5.8-12h0.5l0.5-1.5 0.5-1.5 0.3-0.2 0.2-0.3 0.2-0.3 0.3-0.2 0.5-1 0.5-1 0.5-1q0.5-1 8-16l7.5-15 0.3-0.2 0.2-0.3 0.2-0.3 0.3-0.2 0.3-0.2 0.2-0.3h5l0.2 0.3 0.3 0.2 0.3 0.2 0.2 0.3 9.8 11.7q9.7 11.8 15.7 19.8t7.3 9.2q1.2 1.3 1.4 1.6l0.3 0.2 0.3 0.2 0.2 0.3 0.2 0.3 0.3 0.2 0.3 0.2 0.2 0.3 0.2 0.3 0.3 0.2 0.3 0.2 0.2 0.3 0.2 0.3 0.3 0.2 0.3 0.2 0.2 0.3 0.5 0.3 0.5 0.2 25 31q25 31 26 31t10.5 11.8q9.5 11.7 10.5 12 1 0.2 2.5 3.2t3.3 4.5q1.7 1.5 2 2.5l0.2 1h-0.2q-0.3 0-1.6 0.8l-1.2 0.7-6.2 6.3q-6.3 6.2-8.3 12.7t-1 14 5.3 13.7q4.2 6.3 10.7 10.3t19 4 19.5-4.5 10.8-10.2q3.7-5.8 3.7-17.3t-0.5-12.5l-0.5-1-0.5-1-0.5-1-0.3-0.2-0.2-0.3-0.2-0.3-0.3-0.2-0.5-1-0.5-1-0.3-0.2-0.2-0.3-1.5-0.3-1.5-0.2-0.2 6.5q-0.3 6.5-1.3 8t-6.3 6.3q-5.2 4.7-13.2 5.2t-14.2-5.2q-6.3-5.8-7.3-12.8t1.7-13.5l2.8-6.5 0.5-0.2q0.5-0.3 0.5-0.6v-0.2l3.5-0.8q3.5-0.7 6.5-1l3-0.2-0.2-3q-0.3-3-12.8-66.5t-14.5-75.5l-2-12 0.3-1 0.2-1 22.5-0.8q22.5-0.7 37-1.2l14.5-0.5v-0.5l47-2.2q47-2.3 48-2l1 0.2 0.2 1q0.3 1 1.3 4t5.5 8.5 11.2 9.3q6.8 3.7 17.3 3.7t16.7-3.3q6.3-3.2 10.8-8.7t6.5-12.5 1-13.5-5-12.5-11.3-10.2q-7.2-4.3-16.7-4.8t-16 1.8l-6.5 2.2v-0.5l-1-0.5q-1-0.5-4.8-3.8-3.7-3.2-46-38.4l-42.2-35.3-0.2-0.3-0.3-0.2-0.3-0.2-0.2-0.3-0.2-0.3-0.3-0.2-0.3-0.2-0.2-0.3-0.2-0.3-0.3-0.2-0.3-0.2-0.2-0.3-0.2-0.3-0.3-0.2v-2l0.3-0.2 0.2-0.3 2-0.5 2-0.5 64-20.5q64-20.5 65.5-20.8l1.5-0.2 6 7.2q6 7.3 13.5 10.3t17 2.5 16-4.5 10.7-9.7q4.3-5.8 5.8-10.8t1.8-5z"/>
   <path d="m0 767.5v-175.5l3.8 7.5q3.7 7.5 7.4 11.3 3.8 3.7 12.8 6.7t18 1.5 15.8-6.2q6.7-4.8 9.4-9 2.8-4.3 2.8-4.6v-0.2l0.5-0.2 0.5-0.3 82.5 11q82.5 11 87 11.5l4.5 0.5 1.5 0.5 1.5 0.5 0.2 0.3 0.3 0.2v5l-46.5 89q-46.5 89-46.2 90.8 0.2 1.7 5 5.4 4.7 3.8 5 4.3l0.2 0.5h-0.5l-0.3 0.2-0.2 0.3 0.2 0.3 0.3 0.2 0.3 0.2 0.2 0.3-0.2 0.3-0.3 0.2-0.3 0.2-0.2 0.3 0.2 0.3 0.3 0.2v2l-0.5 5.5q-0.5 5.5-3.8 8.5-3.2 3-3.2 4t-4 3.2q-4 2.3-11.5 1.3t-13.3-5.7q-5.7-4.8-5.7-15.3v-10.5l0.3-0.2 0.2-0.3 0.2-0.3 0.3-0.2 0.5-1 0.5-1 0.3-1 0.2-1-1.5 0.2-1.5 0.3-1 0.5-1 0.5-1 0.5-1 0.5-0.2 0.3-0.3 0.2-0.3 0.2-0.2 0.3-4.8 4.7q-4.7 4.8-6.7 9.3t-2.5 9 1.2 11.7q1.8 7.3 7.3 13.8t13.5 9.5 16 2.5 14.8-4.2q6.7-3.8 10.7-8.8t6-12 0.5-14-2-8.5l-0.5-1.5-0.3-1-0.2-1 0.2-0.5q0.3-0.5 66-40.5l65.8-40 1-0.2 1-0.3v-0.5l0.5-0.2 0.5-0.3 4.8-2.7q4.7-2.8 5.7-2.8t1.3-1q0.2-1 2.7-1.5t3-1.3q0.5-0.7 2-1.7t4.5-2.3q3-1.2 3.5-2 0.5-0.7 3.5-2 3-1.2 4-2.4 1-1.3 2.8-2 1.7-0.8 2.4-1.6 0.8-0.7 2.6-1.4 1.7-0.8 2.4-1.6 0.8-0.7 5-3 4.3-2.2 4.6-3.2 0.2-1 3-0.5 2.7 0.5 77.2 87.5t74.8 87h0.2l-4.8 6q-4.7 6-6.2 10t-1 13 4 15 9.2 10.2q5.8 4.3 7.3 4.8l1.5 0.5 1.5 0.5 1.5 0.5 2 0.5 2 0.5v0.5h-533v-175.5z"/>
  </g>
  <path d="m572.8 342.8l12.7 14.2 0.3 0.5 0.2 0.5-1 0.2q-1 0.3-4 2.3l-3 2-0.2 0.3-0.3 0.2-0.3 0.2-0.2 0.3-0.2 0.3-0.3 0.2-0.3 0.2-0.2 0.3-0.2 0.3-0.3 0.2v7l0.5 1 0.5 1 0.3 0.2 0.2 0.3 0.2 0.3 0.3 0.2 0.3 0.2 0.2 0.3 0.2 0.3 0.3 0.2 0.3 0.2 0.2 0.3 4 1.5q4 1.5 9.5 1t6.5-0.8l1-0.2 4.8 12.5q4.7 12.5 5.7 24t-1.5 25.5-10 32-13 27-5.8 9.2l-0.2 0.3-0.2 0.3-0.3 0.2-0.3 0.2-0.2 0.3h-2l-0.2-0.3q-0.3-0.2-1.6-1-1.2-0.7-11.2-9.2t-20.5-20-17.7-22.8q-7.3-11.2-11.3-22.2t-4-29 4-32 14.5-36.5 12.2-23.3q1.8-0.7 10.3 7.3t21.3 22.3z" stroke="#000"/>
  <path d="m634.2 429l-0.2 3-3.2 16q-3.3 16-6.3 24t-3.5 9.5l-0.5 1.5-0.5 1-0.5 1-0.3 1-0.2 1h-0.2q-0.3 0-2.8 5t-10.5 18.5-12.7 17.3q-4.8 3.7-12.3 4.2t-14.5-3-21.5-16.5-27-28.3l-12.5-15.2-0.2-0.5-0.3-0.5-0.5-1-0.5-1-0.5-1q-0.5-1-1.2-2.2-0.8-1.3-6.8-15l-6-13.8v-1l-0.2-1.5-0.3-1.5-0.5-2.5q-0.5-2.5-0.5-22.5t4.5-36.5 16-41 16.8-31.5l5.2-7 3.5-1.2q3.5-1.3 8-0.8t10.7 4.8q6.3 4.2 26.8 24.7t30 34 15.5 27.5 8 27.5 2 17-0.3 6.5zm-61.4-86.2l12.7 14.2 0.3 0.5 0.2 0.5 7 0.2q7 0.3 8.5 1.3t1.7 1.3l0.3 0.2 0.3 0.2 0.2 0.3 0.2 0.3 0.3 0.2 0.3 0.2 0.2 0.3 0.2 0.3 0.3 0.2 0.3 0.2 0.2 0.3 0.2 0.3 0.3 0.2-0.5 4.5q-0.5 4.5-3.2 6.7-2.8 2.3-2.8 2.6v0.2l4.8 12.5q4.7 12.5 5.7 24t-1.5 25.5-10 32-13 27-5.8 9.2l-0.2 0.3-0.2 0.3-0.3 0.2-0.3 0.2-0.2 0.3h-2l-0.2-0.3q-0.3-0.2-1.6-1-1.2-0.7-11.2-9.2t-20.5-20-17.7-22.8q-7.3-11.2-11.3-22.2t-4-29 4-32 14.5-36.5 12.2-23.3q1.8-0.7 10.3 7.3t21.3 22.3z" fill="#ca0001" stroke="#ca0001"/>
  <path d="m354 335h1l-1 2.8q-1 2.7-2.2 5.4-1.3 2.8-0.3 19.8t6 31 9.7 20.8q4.8 6.7 5.8 7 1 0.2 9 9 8 8.7 21 17.7t22 13.5 15 5.5 22 2 26.5 1.5 11.5 0.8l1 0.2 0.2-1 0.3-1 0.3 0.2 0.2 0.3 1.5 0.3 1.5 0.2v-2l12.5 15.2q12.5 15.3 27 28.3t21.5 16.5 14.5 3 12.3-4.2q4.7-3.8 12.7-17.3t10.5-18.5 2.8-5h0.2v2l1.5-0.2 1.5-0.3h2.5q2.5 0 4.5-0.5t14.5-3 29-10 28-15 13.3-7.8q1.7-0.2 5.4-3.4 3.8-3.3 5.6-4 1.7-0.8 2-1.8 0.2-1 1.2-1t1.2-1l0.3-1 0.3-0.2 0.2-0.3 0.2-0.3 0.3-0.2 0.5-1 0.5-1 0.3-0.2 0.2-0.3 1.5-0.5 1.5-0.5 0.5-0.3 0.5-0.2-0.2 1-0.3 1-0.5 1-0.5 1-0.3 0.2-0.2 0.3-0.2 0.3-0.3 0.2-0.5 1-0.5 1-0.5 1q-0.5 1-3.5 5.5t-13 15.5-22.7 21.2l-12.8 10.3-1 0.5-1 0.5-0.2 0.3-0.3 0.2-0.3 0.2-0.2 0.3-0.2 0.3-0.3 0.2h-0.5l-0.5 0.2q-0.5 0.3-6 3.8t-27.5 13.5-42.5 16-46.5 10-56 4-52-3.5-41.5-9.5-36.5-15-28.2-18.3q-11.3-9.2-19-19.4-7.8-10.3-12.6-22-4.7-11.8-5.7-24.8t1.3-24.5l2.2-11.5 0.5-0.2q0.5-0.3 0.5-0.6v-0.2l0.2-0.5q0.3-0.5 0.8-2t8.5-15 20.5-26l12.5-12.5 2.3-2.5q2.2-2.5 3.2-2.5z" fill="#075099" stroke="#075099"/>
  <path d="m229.8 557l-3.8-2 21.5 4.8q21.5 4.7 31.5 9.7t17.2 10.3q7.3 5.2 14.8 15.7t14.8 26.3q7.2 15.7 13.4 26 6.3 10.2 7.6 13 1.2 2.7 6.7 5.2t6.5 1.5 7.2-1.3q6.3-0.2 6.6-1.2 0.2-1 4.2-1.5t4.5-1.7q0.5-1.3 5.5-4.8t8-5.8q3-2.2 6-6 3-3.7 5.8-5.4 2.7-1.8 8.4-6.6 5.8-4.7 10.8-7.7t19.5-7.5 50.5-9.5 39.2-5.7q3.3-0.8 3.6-0.8h0.2l1.5-0.2q1.5-0.3 1.5-0.6v-0.2l2.5-0.2 2.5-0.3 11-3q11-3 16.5-3.5t22-0.5h16.5l2.5 0.5 2.5 0.5-3 0.5-3 0.5 8.5 1.5q8.5 1.5 18.5 2.5t21.5 2.5 37 5.5 41.5 7.5 17.5 4.5 3.5 1.5l2 0.5 1.5 0.5 1.5 0.5 2 0.5 2 0.5v0.5l-3-0.2-3-0.3-1.5-0.5-1.5-0.5-3-0.5q-3-0.5-33-2.5t-55.5 0-37.5 7-18 10-11.2 11.7q-5.3 6.8-8.3 17.3t-2 23 4 22.5 5.5 19.5 5 15l2.5 5.5 0.3 0.2 0.2 0.3 1 0.5 1 0.5 0.2 0.3 0.3 0.2 0.5 1 0.5 1 0.3 0.2 0.2 0.3 0.5 0.3 0.5 0.2-28.2 58.5q-28.3 58.5-28.8 59t-0.8 3l-0.2 2.5-0.5-0.2q-0.5-0.3-3.5-1.3t-13-1.5-17 2.2l-7 2.8h-0.2q-0.3 0-74.8-87t-77.2-87.5q-2.8-0.5-3 0.5-0.3 1-4.6 3.2-4.2 2.3-5 3-0.7 0.8-2.4 1.6-1.8 0.7-2.6 1.4-0.7 0.8-2.4 1.6-1.8 0.7-2.8 2-1 1.2-4 2.4-3 1.3-3.5 2-0.5 0.8-3.5 2-3 1.3-4.5 2.3t-2 1.7q-0.5 0.8-3 1.3t-2.7 1.5q-0.3 1-1.3 1t-5.7 2.8l-4.8 2.7-0.5 0.3-0.5 0.2h-0.5l-0.3 0.2-0.2 0.3-0.5 0.3-0.5 0.2h-0.5v-3q0-1 0.3-2.5 0.2-1.5-0.8-1.5t-2.8-5q-1.7-5-2.7-14.5t1.5-25 4.5-31.5 0.5-27-5.5-20-10.3-16.2q-6.2-7.3-16-14-9.7-6.8-23.4-14l-13.8-7.3-0.2-0.3q-0.3-0.2-4-2.2z" fill="#bb3abf" stroke="#bb3abf"/>
  <path d="m124.5 521l6.5-4-0.2 0.5q-0.3 0.5-0.8 2l-0.5 1.5-0.3 0.2-0.2 0.3-0.2 0.3-0.3 0.2-0.3 0.2-0.2 0.3 0.2 0.3 0.3 0.2 0.3 0.2 0.2 0.3 0.2 0.3 0.3 0.2 0.3 0.2 0.2 0.3 1.5 0.3q1.5 0.2 1.5 1.2t15 6.2q15 5.3 45 13.8t31.5 8.8l1.5 0.2 3.8 2q3.7 2 4 2.2l0.2 0.3 13.8 7.3q13.7 7.2 23.4 14 9.8 6.7 16 14 6.3 7.2 10.3 16.2t5.5 20-0.5 27-4.5 31.5-1.5 25 2.7 14.5q1.8 5 2.8 5t0.8 1.5q-0.3 1.5 0.4 2.7 0.8 1.3 1.3 1.6l0.5 0.2v0.5l-1 0.3-1 0.2-65.8 40q-65.7 40-66 40.5l-0.2 0.5-0.5-0.2-0.5-0.3-0.2-0.3-0.3-0.2-0.3-0.2-0.2-0.3-0.2-0.3-0.3-0.2-0.3-0.2-0.2-0.3-0.2-0.3-0.3-0.2-0.3-0.2-0.2-0.3-0.2-0.3-0.3-0.2h-0.5l-0.2-0.5q-0.3-0.5-5-4.3-4.8-3.7-5-5.4-0.3-1.8 46.2-90.8l46.5-89v-5l-0.3-0.2-0.2-0.3-1.5-0.5-1.5-0.5-4.5-0.5q-4.5-0.5-87-11.5l-82.5-11-0.5 0.3-0.5 0.2 0.2-1q0.3-1 0.8-10t-3.2-16.5l-3.8-7.5 0.5-0.2q0.5-0.3 18.5-12.6 18-12.2 18-13.2t3.5-2.5 3.5-2.5 1.5-1 1.5-1 3.5-2.5 3.5-2.5 6.5-5z" fill="#cc45cc" stroke="#cc45cc"/>
  <path d="m547.5 63.2l0.5-0.2 1.2 3.5q1.3 3.5 6.8 12.5t5.8 10.5q0.2 1.5 1.2 1.5t2.8 4.5q1.7 4.5 41.2 68t40 64.5l0.5 1 0.3 0.2 0.2 0.3 1.5 0.3 1.5 0.2v0.5l3 0.7q3 0.8 7.2 7.8 4.3 7 14 17.2 9.8 10.3 16.3 15.8t17.7 13.8q11.3 8.2 13 10 1.8 1.7 3.8 2 2 0.2 4.2 8.2 2.3 8 3.6 19.8 1.2 11.7 1 14-0.3 2.2-0.3 3.2v1l-0.3 0.2-0.2 0.3 1 0.5 1 0.5-1 0.3-1 0.2 0.2 1 0.3 1v2l-0.3 0.2-0.2 0.3v0.5h-0.5l-0.5-1-0.5-1-0.3-0.2-0.2-0.3-0.2-0.3-0.3-0.2-0.5-1-0.5-1-0.3-0.2-0.2-0.3-0.2-0.3q-0.3-0.2-7.3-8.2t-17.3-16.2q-10.2-8.3-28.4-17.6l-18.3-9.2h-0.5l-0.2-0.5q-0.3-0.5-0.6-0.5h-0.2l-0.2-0.5q-0.3-0.5-0.8-1.5l-0.5-1-0.3-0.2-0.2-0.3-0.2-0.3-0.3-0.2-0.5-1q-0.5-1-4-8t-14.5-22.5-20.3-23.7q-9.2-8.3-18.2-13.8t-19-7-13.5-1-10 3-22 5.5-26 0-15.3-6.3q-4.7-3.2-8-4.4-3.2-1.3-3.7-2-0.5-0.8-3-0.6l-2.5 0.3-0.2 0.3-0.3 0.2-0.3 0.2-0.2 0.3-0.2 0.3-0.3 0.2h-0.5l0.2-1 0.3-1 23-68.5q23-68.5 23.3-70l0.2-1.5 10.5-0.2q10.5-0.3 14-1.8t4-1.8z" fill="#ab42bc" stroke="#ab42bc"/>
  <path d="m304.5 396h1.5l-2.8 12q-2.7 12-1.7 25t5.7 24.8q4.8 11.7 12.6 22 7.7 10.2 19 19.4 11.2 9.3 28.2 18.3t36.5 15 41.5 9.5 52 3.5 56-4 46.5-10 42.5-16 27.5-13.5 6-3.8l0.5-0.2 0.2 1 0.3 1 0.3 0.2 0.2 0.3 0.2 0.3 0.3 0.2 0.3 1 0.2 1 2 0.2 2 0.3 1 0.5q1 0.5 12.5 1.5t17.5 2 15.5 1.5 22 3 14.3 4.2q1.7 1.8 6 3.6 4.2 1.7 6 4.4 1.7 2.8 5.4 6.6 3.8 3.7 2.6 9.4-1.3 5.8-7 12.6-5.8 6.7-17.8 12.7t-27 9.3q-15 3.2-15 4.2t-2.5 1.2q-2.5 0.3-1 0.8t-3 1.2q-4.5 0.8-4.5 1.8t-6.8 1.5q-6.7 0.5-15.4 0.7-8.8 0.3-9.8 1.3t-39 1-50.5 1.5-25 5l-12.5 3.5-1.5 0.5-1.5 0.5-1 0.5q-1 0.5-1 0.8v0.2l-1.5 0.2-1.5 0.3v0.5h-0.2q-0.3 0-3.6 0.8-3.2 0.7-39.2 5.7t-50.5 9.5-19.5 7.5-10.8 7.7q-5.7 4.8-8.4 6.6-2.8 1.7-5.8 5.4-3 3.8-6 6-3 2.3-8 5.8t-5.5 4.8q-0.5 1.2-4.5 1.7t-4.2 1.5q-0.3 1-6.6 1.2-6.2 0.3-7.2 1.3t-6.5-1.5-6.7-5.2q-1.3-2.8-7.6-13-6.2-10.3-13.4-26-7.3-15.8-14.8-26.3t-14.8-15.7q-7.2-5.3-17.2-10.3t-31.5-9.7l-21.5-4.8-1.5-0.2q-1.5-0.3-31.5-8.8t-45-13.8q-15-5.2-15-6.2t-1.5-1.2l-1.5-0.3-0.2-0.3-0.3-0.2-0.3-0.2-0.2-0.3-0.2-0.3-0.3-0.2-0.3-0.2-0.2-0.3 0.2-0.3 0.3-0.2 0.3-0.2 0.2-0.3 0.2-0.3 0.3-0.2 0.5-1.5q0.5-1.5 0.8-2l0.2-0.5 0.2-0.5q0.3-0.5 4.8-4t41-30l36.5-26.5 0.3-0.2 0.2-0.3 1-0.5 1-0.5 0.2-0.3 0.3-0.2v-3l-0.3-0.2-0.2-0.3-0.2-0.3-0.3-0.2h-0.5l0.2-1.5q0.3-1.5 0-3-0.2-1.5-1.2-1.7-1-0.3 11.5-7l12.5-6.8 1-0.2 1-0.3 1.5-0.5 1.5-0.5 1.5-0.5 1.5-0.5 11-5.5q11-5.5 19.5-11t13-7 7-2.5 4-0.7q1.5 0.2 2-2.3t2-2.5z" fill="#9126a1" stroke="#9126a1"/>
  <path d="m346.5 87.2l0.5-0.2 2 3.5q2 3.5 3 3.5t13.2 16q12.3 16 51.3 67t39.5 52l0.5 1 0.3 0.2 0.2 0.3 0.2 0.3 0.3 0.2 0.3 0.2 0.2 0.3 0.2 0.3 0.3 0.2 0.3 0.2 0.2 0.3h4l0.2-0.3 0.3-0.2 0.5-1 0.5-1 0.5-1.5q0.5-1.5 3.8-10.5l3.2-9h0.5l0.3-0.2 0.2-0.3 0.2-0.3 0.3-0.2 0.3-0.2 0.2-0.3 2.5-0.3q2.5-0.2 3 0.6 0.5 0.7 3.7 2 3.3 1.2 8 4.4 4.8 3.3 15.3 6.3t26 0 22-5.5 10-3 13.5 1 19 7 18.2 13.8q9.3 8.2 20.3 23.7t14.5 22.5 4 8l0.5 1 0.3 0.2 0.2 0.3 0.2 0.3 0.3 0.2 0.3 1 0.2 1h2v2l-1-0.2-1-0.3-1-0.5-1-0.5-1.5-0.5-1.5-0.5-0.2-0.3q-0.3-0.2-0.6-0.2h-0.2l-1-0.2q-1-0.3-7.5-2.3t-29-6.5-48.5-5.5-41.5 0.3l-15.5 1.2-3 0.2q-3 0.3-17.5 2.8t-40 10-45.5 17-33 18.2l-13 8.8-0.5 0.2q-0.5 0.3-0.5 0.6v0.2l-0.5 0.2q-0.5 0.3-2.7 2l-2.3 1.8-12.5 12.5q-12.5 12.5-20.5 26t-8.5 15-0.8 2l-0.2 0.5h-0.2q-0.3 0-0.6 0.5l-0.2 0.5-0.5-0.2q-0.5-0.3-1.5 2-1 2.2-2.5 2-1.5-0.3-4 0.7t-7 2.5-13 7-19.5 11l-11 5.5-1.5 0.5-1.5 0.5-1.5 0.5-1.5 0.5-1 0.3-1 0.2 0.2-0.5 0.3-0.5 0.3-0.2 0.2-0.3 0.2-0.3 0.3-0.2 0.3-0.2 0.2-0.3 0.2-0.3 0.3-0.2 0.3-0.2 0.2-0.3 0.2-0.3 0.3-0.2 0.3-0.2 0.2-0.3 0.2-0.3 0.3-0.2 0.3-0.2 0.2-0.3 0.2-0.3 0.3-0.2 0.3-0.2 0.2-0.3 0.2-0.3q0.3-0.2 10-10 9.8-9.7 13.3-13.4 3.5-3.8 8.7-8.3 5.3-4.5 11-8.7 5.8-4.3 8.8-7.6 3-3.2 4.5-3.4 1.5-0.3 5-3.3t6.5-6.3q3-3.2 4.5-3.2t1.5-1 1-1.2q1-0.3 3.8-3 2.7-2.8 2-3.3-0.8-0.5 3-7.5 3.7-7 6.2-17.5t3-24.5-0.5-19.5-3-10.5-7.5-20.5-5.5-27 1.3-12.3q1.2-0.7 0.2-1.2t0.5-1 2-1.8l0.5-1.2 0.2-1 0.3-1 0.3-54 0.2-54 8-2.8q8-2.7 10-4.2t2.5-1.8z" fill="#9736ac" stroke="#9736ac"/>
  <path d="m734.8 147l0.2-1 5 3.8q5 3.7 11.5 5.7t8.5 2.3l2 0.2 0.8 55q0.7 55 19 55.2 18.2 0.3 31.2 0l13-0.2-0.2 0.5-0.3 0.5-0.3 0.2-0.2 0.3 0.2 0.3 0.3 0.2 0.3 1 0.2 1-2.5 0.2q-2.5 0.3-5 0.8l-2.5 0.5 0.2 0.3 0.3 0.2 0.5 1 0.5 1 1.5 3.5q1.5 3.5 6.5 9t6.7 7q1.8 1.5 1.8 2.5t-1 0.8q-1-0.3-2.5-0.3h-1.5l0.2 0.3 0.3 0.2 0.3 0.2 0.2 0.3 0.2 0.3q0.3 0.2 2.6 2 2.2 1.7 3.4 4 1.3 2.2 3.3 6.7t5.5 14.5 4 22-3.2 23.5q-3.8 11.5-4.8 11.7-1 0.3-3.2 4.6-2.3 4.2-6.8 8.7t-9.8 6.3q-5.2 1.7-6.2 2.7t-10.5 3-13 2-6 0.5-17.7-1.8q-15.3-2.2-17.6-2.7-2.2-0.5-2.2-1.5v-1h-2l-0.2-10.5q-0.3-10.5-1.3-15.5t-5.7-16.5l-4.8-11.5v-0.5l0.2-0.3 0.3-0.2v-2l-0.3-1-0.2-1 1-0.2 1-0.3-1-0.5-1-0.5 0.2-0.3 0.3-0.2v-1q0-1-1-15t-3.3-22q-2.2-8-4.2-8.2-2-0.3-3.8-2-1.7-1.8-13-10-11.2-8.3-17.7-13.8t-16.3-15.8q-9.7-10.2-14-17.2-4.2-7-7.2-7.8l-3-0.7v-0.5l1-0.2 1-0.3 0.2-0.3 0.3-0.2 40.5-40.5q40.5-40.5 40.8-41.5z" fill="#ba4ac7" stroke="#ba4ac7"/>
  <path d="m649 290.8l1 0.2 3.5 3.8q3.5 3.7 5.5 4.4 2 0.8 3 3.6 1 2.7 4 4.4 3 1.8 5 5.6 2 3.7 8.8 14 6.7 10.2 9.2 18.2t2 21-5.5 24-14.3 21.2q-9.2 10.3-17.2 15.3t-10 6-3 1.5l-1 0.5h-2l-0.2-0.3-0.3-0.2-0.3 1-0.2 1h-2l-0.2-2-0.3-2h-0.5l0.2-3q0.3-3 0.3-6.5t-2-17-8-27.5-15.5-27.5-30-34-26.8-24.7q-6.2-4.3-10.7-4.8t-8 0.8l-3.5 1.2-3 0.2q-3 0.3-6.5 1-3.5 0.8-4 0-0.5-0.7-4.7 0.6-4.3 1.2-5 0.4-0.8-0.7-17.8 5.8t-27 13-16.8 13.2q-6.7 6.8-11.7 16.8t-6 19 2 19 8.7 17.8q5.8 7.7 13.8 14.7t14.5 10.5 11.5 5 5.2 1.2q0.3-0.2 0.6 1.3l0.2 1.5 1 0.2 1 0.3 0.2 0.3 0.3 0.2 0.3 0.2 0.2 0.3 0.2 0.3 0.3 0.2 0.3 0.2 0.2 0.3 0.5 0.3 0.5 0.2v1l-0.5 0.2-0.5 0.3-0.2 0.3-0.3 0.2-0.3-0.2-0.2-0.3-1-0.3-1-0.2v-2h-2l-0.2 1-0.3 1-0.3-0.2-0.2-0.3-1.5-0.5q-1.5-0.5-6-2t-16.5-9-20.5-17-12.7-19.2q-4.3-9.8-4.8-19.8t0.5-14 5.5-13 14.2-18.8q9.8-9.7 19.8-15.4 10-5.8 10-6.8t2-1.5 2.2-1.5q0.3-1 18-7.8 17.8-6.7 16.3-8l-1.5-1.2 15.5-1.2q15.5-1.3 41.5-0.3t48.5 5.5 29 6.5 7.5 2.3z" fill="#39c5b7" stroke="#39c5b7"/>
  <path d="m245.8 208.5l2.2-7.5 35.5 2.2q35.5 2.3 38.5 2.6l3 0.2-0.5 1.2q-0.5 1.3-2 1.8t-0.5 1-0.2 1.2q-1.3 0.8-1.3 12.3t5.5 27 7.5 20.5 3 10.5 0.5 19.5-3 24.5-5 16-2 6.5-3.2 4.5q-3.8 3.5-3.8 5t-1.5 1.5-1.5 1-3.8 3q-3.7 2-7.7 5.5t-4.3 4.5q-0.2 1-3 2.5-2.7 1.5-9.4 6.3-6.8 4.7-12.3 9.4-5.5 4.8-9 8.6-3.5 3.7-13.3 13.4-9.7 9.8-10 10l-0.2 0.3-0.2 0.3-0.3 0.2-0.3 0.2-0.2 0.3-0.2 0.3-0.3 0.2-0.3 0.2-0.2 0.3-0.2 0.3-0.3 0.2-0.3 0.2-0.2 0.3-0.2 0.3-0.3 0.2-0.3 0.2-0.2 0.3-0.2 0.3-0.3 0.2-0.3 0.2-0.2 0.3-0.2 0.3-0.3 0.2-0.3 0.5-0.2 0.5-12.5 6.8q-12.5 6.7-11.5 7 1 0.2 1.2 1.7 0.3 1.5 0 3l-0.2 1.5-0.5-0.2-0.5-0.3-0.2-0.3-0.3-0.2-0.3-0.2-0.2-0.3-2-0.5q-2-0.5-2.5-1t-6-3.2q-5.5-2.8-5.5-3.8t-2-1.2q-2-0.3-48-25.3t-53.5-21-17.5 4.5-15.5-1.5-9.5-5.5-7.8-10.2q-3.7-6.8-3.7-15.3v-8.5l0.5-1.5 0.5-1.5 0.5-1 0.5-1 0.3-0.2 0.2-0.3 0.2-0.3 0.3-0.2 0.3-0.2 0.2-0.3 0.2-0.3 0.3-0.2 0.3 0.2 0.2 0.3 0.2 0.3 0.3 0.2 1.5 7.5q1.5 7.5 4.2 12.5 2.8 5 3.8 5t1 1 5 3.8q5 2.7 13.5 3.7t15.5-3 12.2-9.7q5.3-5.8 5.8-7.3l0.5-1.5 0.3-0.2 0.2-0.3 1-0.3 1-0.2v3.5q0 3.5 73-7.7 73-11.3 75.5-11.8l2.5-0.5 1-0.3 1-0.2 0.2-1.5 0.3-1.5 0.3-0.2 0.2-0.3-0.2-0.3q-0.3-0.2-18-54.2-17.8-54-19.8-54h-2v-0.5l1.5-0.5q1.5-0.5 3.5-1.5t8.2-7.3q6.3-6.2 8.6-13.7zm78.4 140.7q0.3-0.2 0.6 0 0.2 0.3-0.3 0.3t-0.3-0.3z" fill="#ba42c3" stroke="#ba42c3"/>
  <path d="m915.5 266.2l44.5-0.2 2.2 7.5q2.3 7.5 6.6 12.7 4.2 5.3 6.7 6.8t3 1.8l0.5 0.2v0.2q0 0.3-12.2 12.6-12.3 12.2-73.6 72.4l-61.2 60.3-0.2 0.3-0.3 0.2-0.3 0.2-0.2 0.3-0.2 0.3-0.3 0.2-0.3 0.2-0.2 0.3-0.2 0.3-0.3 0.2-0.3 2-0.2 2 1.5 0.2 1.5 0.3 76.5 11.5q76.5 11.5 79.5 11.8l3 0.2-1.2 4q-1.3 4-0.8 12t0.8 9.5l0.2 1.5-1.5 0.2q-1.5 0.3-65.5 20.8l-64 20.5-2 0.5-2 0.5-0.2 0.3-0.3 0.2v2l0.3 0.2 0.2 0.3 0.2 0.3 0.3 0.2 0.3 0.2 0.2 0.3 0.2 0.3 0.3 0.2 0.3 0.2 0.2 0.3 0.2 0.3 0.3 0.2 0.3 0.2 0.2 0.3 42.2 35.3q42.3 35.2 46 38.4 3.8 3.3 4.8 3.8l1 0.5v1l-5.2 5.3q-5.3 5.2-7.3 9.2t-2.5 11.5-0.2 8l0.2 0.5-1-0.2q-1-0.3-48 2l-47 2.2-6.5-0.2q-6.5-0.3-13.7-1.6-7.3-1.2-9-2-1.8-0.7-3-4.4-1.3-3.8-5.3-10.8t-8-10-14.7-7l-10.8-4v-0.5l-2-0.5-2-0.5-1.5-0.5-1.5-0.5-2-0.5q-2-0.5-3.5-1.5t-17.5-4.5-41.5-7.5-37-5.5-21.5-2.5-18.5-2.5l-8.5-1.5 3-0.5 3-0.5-2.5-0.5-2.5-0.5h-16.5q-16.5 0-22 0.5t-16.5 3.5l-11 3-2 0.5-2 0.5-2 0.3-2 0.2v-0.5l1-0.5 1-0.5 1.5-0.5 1.5-0.5 1.5-0.5 1.5-0.5 12.5-3.5q12.5-3.5 25-5t50.5-1.5 39-1 9.8-1.3q8.7-0.2 15.4-0.7 6.8-0.5 6.8-1.5t4.5-1.8q4.5-0.7 3-1.2t1-0.8q2.5-0.2 2.5-1.2t15-4.2q15-3.3 27-9.3t17.8-12.7q5.7-6.8 7-12.6 1.2-5.7-2.6-9.4-3.7-3.8-5.4-6.6-1.8-2.7-6-4.4-4.3-1.8-6-3.6-1.8-1.7-14.3-4.2t-22-3-15.5-1.5-17.5-2-12.5-1.5l-1-0.5-2-0.3-2-0.2-0.2-1-0.3-1-0.3-0.2-0.2-0.3-0.2-0.3-0.3-0.2-0.3-1-0.2-1h0.5l0.3-0.2 0.2-0.3 0.2-0.3 0.3-0.2 0.3-0.2 0.2-0.3 1-0.5 1-0.5 12.8-10.3q12.7-10.2 22.7-21.2t13-15.5 3.5-5.5l0.5-1 0.5-1 0.5-1 0.3-0.2 0.2-0.3 0.2-0.3 0.3-0.2 0.5-1 0.5-1 0.3-1 0.2-1v-0.2q0-0.3 0.8-1.6 0.7-1.2 4.7-14.2l4-13 0.3-0.5 0.2-0.5h2v1q0 1 2.2 1.5 2.3 0.5 17.6 2.7 15.2 2.3 17.7 1.8t6-0.5 13-2 10.5-3 6.2-2.7q5.3-1.8 9.8-6.3t6.8-8.7q2.2-4.3 3.2-4.6 1-0.2 4.8-11.7 3.7-11.5 3.2-23.5t-4-22-6-15-3.8-7.2q-1.2-2.3-3-3.6-1.7-1.2-2-1.4l-0.2-0.3-0.2-0.3-0.3-0.2-0.3-0.2-0.2-0.3 1.5-0.3q1.5-0.2 0.7-2.2-0.7-2-5.7-7.5t-6.5-9l-1.5-3.5-0.5-1-0.5-1-0.3-0.2-0.2-0.3 2.5-0.5q2.5-0.5 5-0.8l2.5-0.2-0.2-1-0.3-1-0.3-0.2-0.2-0.3 0.2-0.3 0.3-0.2 0.3-0.5 0.2-0.5 22.5-0.8q22.5-0.7 67-1z" fill="#ab2cb0" stroke="#ab2cb0"/>
  <path d="m758 622l3 0.5 1.5 0.5 1.5 0.5 3 0.3 3 0.2 10.8 4q10.7 4 14.7 7t8 10 5.3 10.8q1.2 3.7 3 4.4 1.7 0.8 9 2 7.2 1.3 13.7 1.6l6.5 0.2v0.5l-14.5 0.5q-14.5 0.5-37 1.2l-22.5 0.8-0.2 1-0.3 1 2 12q2 12 14.5 75.5t12.8 66.5l0.2 3-3 0.2q-3 0.3-6.5 1l-3.5 0.8h-0.2q-0.3 0-0.6 0.5l-0.2 0.5-2 0.2q-2 0.3-2.5 0.6l-0.5 0.2-0.2-1q-0.3-1-2-2.5-1.8-1.5-3.3-4.5t-2.5-3.2q-1-0.3-10.5-12-9.5-11.8-10.5-11.8t-26-31l-25-31 0.2-0.5 0.3-0.5 0.3-0.2 0.2-0.3-0.2-0.3-0.3-0.2-0.5-1q-0.5-1-0.8-2-0.2-1 0.8-1.2 1-0.3 10.5-11.3t13.7-17.3q4.3-6.2 5.3-13.2t0-9-4.7-8.5q-3.8-6.5-7.3-8.7-3.5-2.3-14-5.3t-20-3.5-22 2.5-17.7 6.7q-5.3 3.8-9.8 10.8t-6 20 2 20.5l3.5 7.5v4l0.3 1.5 0.2 1.5-5.8 12q-5.7 12-6.2 13l-0.5 1-0.5 1-0.5 1-0.5 1-0.5 1-0.3 0.2-0.2 0.3-0.5 0.3-0.5 0.2-0.5-0.2-0.5-0.3-0.2-0.3-0.3-0.2-0.5-1-0.5-1-0.3-0.2-0.2-0.3-1-0.5-1-0.5-0.2-0.3-0.3-0.2-2.5-5.5q-2.5-5.5-5-15t-5.5-19.5-4-22.5 2-23 8.3-17.3q5.2-6.7 11.2-11.7t18-10 37.5-7 55.5 0 33 2.5z" fill="#cb4acf" stroke="#cb4acf"/>
  <path d="m603.2 360.8l0.3 0.2 0.3 0.2 0.2 0.3 0.2 0.3 0.3 0.2 0.3 0.2 0.2 0.3 0.2 0.3 0.3 0.2 0.3 0.2 0.2 0.3 0.2 0.3 0.3 0.2-0.5 4.5q-0.5 4.5-3.2 6.7-2.8 2.3-2.8 2.6v0.2l-1 0.2q-1 0.3-6.5 0.8t-9.5-1l-4-1.5-0.2-0.3-0.3-0.2-0.3-0.2-0.2-0.3-0.2-0.3-0.3-0.2-0.3-0.2-0.2-0.3-0.2-0.3-0.3-0.2-0.5-1-0.5-1v-7l0.3-0.2 0.2-0.3 0.2-0.3 0.3-0.2 0.3-0.2 0.2-0.3 0.2-0.3 0.3-0.2 0.3-0.2 0.2-0.3 3-2q3-2 4-2.3l1-0.2 7 0.2q7 0.3 8.5 1.3t1.7 1.3z" fill="#fefefe" stroke="#fefefe"/>
  <path d="m527 289.2l3-0.2-5.2 7q-5.3 7-16.8 31.5t-16 41-4.5 36.5 0.5 22.5l0.5 2.5 0.3 1.5 0.2 1.5-0.5-0.2-0.5-0.3-0.2-0.3-0.3-0.2-0.3-0.2-0.2-0.3-0.2-0.3-0.3-0.2-0.3-0.2-0.2-0.3-1-0.3-1-0.2-0.2-1.5q-0.3-1.5-0.6-1.3-0.2 0.3-5.2-1.2t-11.5-5-14.5-10.5-13.8-14.7q-5.7-7.8-8.7-17.8t-2-19 6-19 11.7-16.8q6.8-6.7 16.8-13.2t27-13 17.8-5.8q0.7 0.8 5-0.4 4.2-1.3 4.7-0.6 0.5 0.8 4 0 3.5-0.7 6.5-1z" fill="#48d0af" stroke="#48d0af"/>
  <path d="m697 730l0.5 1 0.3 0.2 0.2 0.3-0.2 0.3-0.3 0.2-0.3 0.5-0.2 0.5-0.5-0.2-0.5-0.3-0.2-0.3-0.3-0.2-0.3-0.2-0.2-0.3-0.2-0.3-0.3-0.2-0.3-0.2-0.2-0.3-0.2-0.3-0.3-0.2-0.3-0.2-0.2-0.3-0.2-0.3-0.3-0.2-0.3-0.2q-0.2-0.3-1.4-1.6-1.3-1.2-7.3-9.2t-15.7-19.8l-9.8-11.7-0.2-0.3-0.3-0.2-0.3-0.2-0.2-0.3h-5l-0.2 0.3-0.3 0.2-0.3 0.2-0.2 0.3-0.2 0.3-0.3 0.2-7.5 15q-7.5 15-8 16l-0.5 1-0.5 1-0.5 1-0.3 0.2-0.2 0.3-0.2 0.3-0.3 0.2-0.5 1.5-0.5 1.5h-0.5l-0.2-1.5-0.3-1.5v-4l-3.5-7.5q-3.5-7.5-2-20.5t6-20 9.8-10.8q5.2-3.7 17.7-6.7t22-2.5 20 3.5 14 5.3q3.5 2.2 7.3 8.7 3.7 6.5 4.7 8.5t0 9-5.3 13.2q-4.2 6.3-13.7 17.3t-10.5 11.3q-1 0.2-0.8 1.2 0.3 1 0.8 2z" fill="#da5adf" stroke="#da5adf"/>
  <path d="m504 278.2l3-0.2 1.5 1.2q1.5 1.3-15.5 7.8t-17 7.5-3 1.7q-3 0.8-3 1.8t-10 6.8q-10 5.7-19.8 15.4-9.7 9.8-14.2 18.8t-5.5 13-0.5 14 4.8 19.8q4.2 9.7 12.7 19.2t20.5 17 16.5 9 6 2l1.5 0.5 0.2 0.3 0.3 0.2 0.3-1 0.2-1h2v2l1 0.2 1 0.3 0.2 0.3 0.3 0.2 0.3-0.2 0.2-0.3 0.5-0.3 0.5-0.2 6 13.8q6 13.7 6.8 15 0.7 1.2 1.2 2.2l0.5 1 0.5 1 0.5 1 0.3 0.5 0.2 0.5v2l-1.5-0.2-1.5-0.3-0.2-0.3-0.3-0.2-0.3 1-0.2 1-1-0.2q-1-0.3-11.5-0.8t-26.5-1.5-22-2-15-5.5-22-13.5-21-17.7q-8-8.8-9-9-1-0.3-5.8-7-4.7-6.8-9.7-20.8t-5.7-28q-0.8-14-1.8-14t-0.2-3q0.7-3 2.2-6t1.8-5l0.2-2h0.2q0.3 0 0.6-0.5l0.2-0.5 13-8.8q13-8.7 33-18.2t45.5-17 40-10 17.5-2.8z" fill="#23a3b4" stroke="#23a3b4"/>
  <path d="m653.5 294.8l-3.5-3.8h0.2q0.3 0 0.6 0.2l0.2 0.3 1.5 0.5 1.5 0.5 1.5 0.3 1.5 0.2v0.2q0 0.3 0.5 0.6l0.5 0.2h0.5l18.3 9.2q18.2 9.3 28.4 17.6 10.3 8.2 17.3 16.2t7.3 8.2l0.2 0.3 0.2 0.3 0.3 0.2 0.5 1 0.5 1 0.3 0.2 0.2 0.3 0.2 0.3 0.3 0.2 0.5 1 0.5 1h0.5l4.8 11.5q4.7 11.5 5.7 16.5t1.3 15.5l0.2 10.5-0.2 0.5-0.3 0.5-4 13q-4 13-4.7 14.2-0.8 1.3-0.8 1.6v0.2l-0.5 0.2-0.5 0.3-1.5 0.5-1.5 0.5-0.2 0.3-0.3 0.2-0.5 1-0.5 1-0.3 0.2-0.2 0.3-0.2 0.3-0.3 0.2-0.3 1q-0.2 1-1.2 1t-1.2 1q-0.3 1-2 1.8-1.8 0.7-5.6 4-3.7 3.2-5.4 3.4-1.8 0.3-13.3 7.8t-28 15-29 10-14.5 3-4.5 0.5h-2.5l-1.5 0.3-1.5 0.2v-2l0.2-1 0.3-1 0.5-1 0.5-1 0.5-1.5q0.5-1.5 3.5-9.5t6.3-24l3.2-16h0.5l0.3 2 0.2 2h2l0.2-1 0.3-1 0.3 0.2 0.2 0.3h2l1-0.5q1-0.5 3-1.5t10-6 17.2-15.3q9.3-10.2 14.3-21.2t5.5-24-1.5-19.5-8.5-17.5-10.2-14.5q-3.8-3.5-4-5-0.3-1.5-3-4.5-2.8-3-3.8-3t-2-1.8q-1-1.7-4.5-5.4z" fill="#1a8cac" stroke="#1a8cac"/>
  <path d="m305 32l1-0.5 1-0.3 1-0.2-0.2 1-0.3 1-0.5 1-0.5 1-0.5 1-0.5 1v9.5q0 9.5 5.3 14.7 5.2 5.3 13.7 6.3t15.3-4.3q6.7-5.2 7.7-8.2t1.3-7.5l0.2-4.5h3v2h2l0.2 1 0.3 1 0.5 1.5 0.5 1.5 0.5 1.5q0.5 1.5 1 9t-0.5 10.5-5.3 9.5l-4.2 6.5-0.5 0.2q-0.5 0.3-2.5 1.8t-10 4.2l-8 2.8-5-0.2q-5-0.3-10-1.8t-10.8-5.8q-5.7-4.2-9.2-10.2t-4-14.5 1.5-13.5 6.3-9.8l4.2-4.7 0.2-0.3 0.3-0.2 0.3-0.2 0.2-0.3 1-0.5 1-0.5 1-0.5 1-0.5 1-0.5z" fill="#fc4f15" stroke="#fc4f15"/>
  <path d="m122 810l1-0.5 1.5-0.3 1.5-0.2-0.2 1-0.3 1-0.5 1-0.5 1-0.3 0.2-0.2 0.3-0.2 0.3-0.3 0.2v10.5q0 10.5 5.7 15.3 5.8 4.7 13.3 5.7t11.5-1.3q4-2.2 4-3.2t3.2-4q3.3-3 3.8-8.5l0.5-5.5v-2l-0.3-0.2-0.2-0.3 0.2-0.3 0.3-0.2 0.3-0.2 0.2-0.3-0.2-0.3-0.3-0.2-0.3-0.2-0.2-0.3 0.2-0.3 0.3-0.2h1l0.3 0.2 0.2 0.3 0.2 0.3 0.3 0.2 0.3 0.2 0.2 0.3 0.2 0.3 0.3 0.2 0.3 0.2 0.2 0.3 0.2 0.3 0.3 0.2 0.3 0.2 0.2 0.3 0.5 0.3 0.5 0.2 0.2 1 0.3 1 0.5 1.5q0.5 1.5 2 8.5t-0.5 14-6 12-10.7 8.8q-6.8 3.7-14.8 4.2t-16-2.5-13.5-9.5-7.3-13.8q-1.7-7.2-1.2-11.7t2.5-9 6.7-9.3l4.8-4.7 0.2-0.3 0.3-0.2 0.3-0.2 0.2-0.3 1-0.5 1-0.5 1-0.5z" fill="#fd5214" stroke="#fd5214"/>
  <path d="m556.5 878.8l0.5 0.2 6.8 6.5q6.7 6.5 8.7 12.5t1.5 13-4 13-8.8 10.2q-5.2 4.3-11.2 6.3t-6 2.3v0.2h-11v-0.5l-2-0.5-2-0.5-1.5-0.5-1.5-0.5-1.5-0.5q-1.5-0.5-7.3-4.8-5.7-4.2-9.2-10.2t-4-15 1-13 6.2-10l4.8-6 7-2.8q7-2.7 17-2.2t13 1.5 3.5 1.3z" fill="#28abb7" stroke="#28abb7"/>
  <path d="m937.2 661l-0.2-1-0.2-0.5q-0.3-0.5 0.2-8t2.5-11.5 7.3-9.2l5.2-5.3v-0.5l6.5-2.2q6.5-2.3 16-1.8t16.7 4.8q7.3 4.2 11.3 10.2t5 12.5-1 13.5-6.5 12.5-10.8 8.7q-6.2 3.3-16.7 3.3t-17.3-3.7q-6.7-3.8-11.2-9.3t-5.5-8.5-1.3-4z" fill="#27abb7" stroke="#27abb7"/>
  <path d="m782 828.2l1-0.2-3.2 7q-3.3 7-2.3 14t7.3 12.8q6.2 5.7 14.2 5.2t13.2-5.2q5.3-4.8 6.3-6.3t1.3-8l0.2-6.5 1.5 0.2 1.5 0.3 0.2 0.3 0.3 0.2 0.5 1 0.5 1 0.3 0.2 0.2 0.3 0.2 0.3 0.3 0.2 0.5 1 0.5 1 0.5 1q0.5 1 0.5 12.5t-3.7 17.3q-3.8 5.7-10.8 10.2t-19.5 4.5-19-4-10.7-10.3q-4.3-6.2-5.3-13.7t1-14 8.3-12.7l6.2-6.3 1.2-0.7q1.3-0.8 1.6-0.8h0.2l2-0.8q2-0.7 3-1z" fill="#fd5215" stroke="#fd5215"/>
  <path d="m525 0.2v-0.2h10l3 1.2q3 1.3 4 1.8l1 0.5 5.5 3.5q5.5 3.5 9.3 8.2 3.7 4.8 4.7 7.8t0.5 13-4.8 16.2q-4.2 6.3-7 8.6-2.7 2.2-3 2.2h-0.2l-0.5 0.2q-0.5 0.3-4 1.8t-14 1.8l-10.5 0.2-7.5-3.8q-7.5-3.7-11.7-9.4-4.3-5.8-5.8-11.3t-0.5-13 5.3-13.7q4.2-6.3 11.7-10.3t11-4.5 3.5-0.8z" fill="#28adb7" stroke="#28adb7"/>
  <path d="m979.2 295h-0.2l-0.5-0.2q-0.5-0.3-3-1.8t-6.7-6.8q-4.3-5.2-6.6-12.7l-2.2-7.5 2.2-8.5q2.3-8.5 6.6-13.7 4.2-5.3 12.2-8.8t17.5-3 16.7 4.8q7.3 4.2 11.3 10.2t5 13-1 14-3.7 10q-1.8 3-9.3 7.8-7.5 4.7-11 5.7t-12 0.5-11.7-1.8q-3.3-1.2-3.6-1.2z" fill="#2da7b5" stroke="#2da7b5"/>
  <path d="m1050 475l0.5-5 0.3-2 0.2-2h3v2h2l0.2 1 0.3 1 2 6.5q2 6.5 2.3 6.5h0.2v5h-0.2q-0.3 0-1.8 5t-5.8 10.8q-4.2 5.7-10.7 9.7t-16 4.5-17-2.5-13.5-10.3l-6-7.2-0.2-1.5q-0.3-1.5-0.8-9.5t0.8-12l1.2-4 4.5-5.8q4.5-5.7 5.5-6.2l1-0.5 0.2-0.3 0.3-0.2 0.3-0.2 0.2-0.3 1-0.5 1-0.5 0.2-0.3 0.3-0.2 0.3-0.2 0.2-0.3 2.2-0.7q2.3-0.8 0.8 3.7t-1 13.5 6.8 14.2q6.2 5.3 14.2 5.3t13.8-4.7q5.7-4.8 6.2-5.8t1-6z" fill="#fc4b17" stroke="#fc4b17"/>
  <path d="m745 94l1-0.5 1.5-0.3 1.5-0.2-0.2 1-0.3 1-0.5 1-0.5 1-0.5 1-0.5 1v10q0 10 5.7 14.8 5.8 4.7 13.8 5.7t13.2-2.7q5.3-3.8 6.8-5.8t2-4.5 0.8-7.5l0.2-5 1 0.2 1 0.3 0.2 0.3 0.3 0.2 0.3 0.2 0.2 0.3 0.2 0.3 0.3 0.2 0.3 0.2 0.2 0.3 0.2 0.3 0.3 0.2 0.3 0.2 0.2 0.3 0.2 0.3 0.3 0.2 0.5 1 0.5 1 0.5 1.5q0.5 1.5 1.5 8t-1 13-5.3 10.7q-3.2 4.3-8.2 7.8t-13 5.2l-8 1.8-2-0.2q-2-0.3-8.5-2.3t-11.5-5.7l-5-3.8-0.2-0.5q-0.3-0.5-3.3-5.5t-4-12 1.5-14.5 7.2-12.3l4.8-4.7 0.2-0.3 0.3-0.2 0.3-0.2 0.2-0.3 1-0.5 1-0.5 1-0.5z" fill="#fd5115" stroke="#fd5115"/>
  <g fill="#27acb7" stroke="#27acb7">
   <path d="m246.2 193l1.8 8-2.2 7.5q-2.3 7.5-8.6 13.7-6.2 6.3-8.2 7.3t-3.5 1.5l-1.5 0.5v0.5l-1.5 0.2q-1.5 0.3-5 0.8t-12-1-14.7-5.8q-6.3-4.2-9.8-10.2t-4-15 1-13 6.2-9.8q4.8-5.7 11.8-8.7t15.5-3 15.5 3 12.2 9.3q5.3 6.2 7 14.2z"/>
   <path d="m57.5 559.8l6.5 4.2 3.8 7.5q3.7 7.5 3.2 16.5t-0.8 10l-0.2 1v0.2q0 0.3-2.8 4.6-2.7 4.2-9.4 9-6.8 4.7-15.8 6.2t-18-1.5-12.8-6.7q-3.7-3.8-7.4-11.3l-3.8-7.5v-11h0.5l0.5-2.5 0.5-2.5 0.5-1 0.5-1 0.5-1q0.5-1 3.2-5.2 2.8-4.3 9.8-8.8t18-5 14 0.5 9.5 5.3z"/>
  </g>
 </g>
</svg>
