<?xml version="1.0" encoding="UTF-8"?>
<svg viewBox="0 0 559.37 396.85" xmlns="http://www.w3.org/2000/svg">
 <path d="m298.94 303.74l-47.726-60.871 3.413 77.275-26.58-72.64-20.633 74.548-2.832-77.298-42.66 64.523 21.193-74.391-60.51 48.183 43.143-64.201-72.438 27.126 60.871-47.726-77.275 3.414 72.64-26.581-74.548-20.633 77.299-2.832-64.524-42.659 74.391 21.192-48.183-60.51 64.201 43.143-27.126-72.438 47.726 60.871-3.413-77.275 26.58 72.64 20.633-74.548 2.832 77.299 42.66-64.524-21.193 74.391 60.51-48.183-43.143 64.201 72.438-27.126-60.871 47.727 77.275-3.414-72.64 26.58 74.548 20.633-77.299 2.833 64.524 42.659-74.391-21.193 48.183 60.511-64.201-43.144 27.126 72.438z" stroke-linecap="square" stroke-width="5"/>
 <g fill-rule="evenodd">
  <path d="m349.98 174.23a125 125 0 1 1 0.019012 -2.181" fill="#f00" stroke-linecap="square" stroke-width="5"/>
  <g stroke="#000">
   <path d="m173.25 116.48l50.75 25.375s-26.04 23.23-43.5 14.5c-14.5-7.25-7.25-39.875-7.25-39.875z" fill="#fff"/>
   <path d="m187.75 123.73s-3.625 12.393-3.625 18.125c0 10.875 11.061 10.317 14.5 0l3.625-10.875-14.5-7.25z"/>
   <g transform="matrix(-.70732 0 0 .70732 385.32 48.819)">
    <path d="m150 97.047l70 35s-35.917 32.042-60 20c-20-10-10-55-10-55z" fill="#fff"/>
    <path d="m170 107.05s-5 17.094-5 25c0 15 15.257 14.23 20 0l5-15-20-10z"/>
   </g>
   <path d="m175 222.05s25-25 50-25 50 25 50 25-25-10-50-10-50 10-50 10z" fill="#3f3f3f"/>
  </g>
  <path d="m302.18 158.05l59.823 13-59.823 13s-2.2011-7.3769-2.2011-13.877c0-6.5 2.2011-12.123 2.2011-12.123z"/>
  <g fill="#3f3f3f">
   <path d="m220 171l-10.6 11.043 1.5193-15.232s3.1994-0.96762 5.4696 0.079483c2.2701 1.0471 3.611 4.1089 3.611 4.1089z"/>
   <path d="m238.91 166.88l2.0999 15.163-11.014-10.63s1.223-3.1108 3.4515-4.2438 5.4626-0.2883 5.4626-0.2883z"/>
  </g>
  <path transform="rotate(180 121.63 175.65)" d="m92.819 162.65l59.823 13-59.823 13s-2.2011-7.3769-2.2011-13.877c0-6.5 2.2011-12.123 2.2011-12.123z"/>
  <path transform="rotate(220 167.63 75.65)" d="m138.82 62.65l59.823 13-59.823 13s-2.2011-7.3769-2.2011-13.877c0-6.5 2.2011-12.123 2.2011-12.123z"/>
  <path transform="rotate(-40 282.63 72.65)" d="m253.82 59.65l59.823 13-59.823 13s-2.2011-7.3769-2.2011-13.877c0-6.5 2.2011-12.123 2.2011-12.123z"/>
  <path transform="rotate(125 156.63 264.65)" d="m127.82 251.65l59.823 13-59.823 13s-2.2011-7.377-2.2011-13.877 2.2011-12.123 2.2011-12.123z"/>
  <path transform="rotate(53.499 299.63 263.65)" d="m270.82 250.65l59.823 13-59.823 13s-2.201-7.377-2.201-13.877 2.201-12.123 2.201-12.123z"/>
  <path transform="rotate(211.76 124.3 108.38)" d="m95.484 95.378l59.823 13-59.823 13s-2.2011-7.377-2.2011-13.877 2.2011-12.123 2.2011-12.123z"/>
  <path transform="rotate(-41.658 318.3 101.38)" d="m289.48 88.378l59.822 13-59.822 13s-2.2011-7.377-2.2011-13.877 2.2011-12.123 2.2011-12.123z"/>
  <path transform="rotate(89.522 227.3 280.38)" d="m198.48 267.38l59.823 13-59.823 13s-2.2011-7.377-2.2011-13.877 2.2011-12.123 2.2011-12.123z"/>
 </g>
</svg>
