<?xml version="1.0" encoding="UTF-8"?>
<svg viewBox="0 0 1110 901" xmlns="http://www.w3.org/2000/svg">
 <g fill-rule="evenodd" stroke-width=".5">
  <g fill="#fff" stroke="#fff">
   <path d="m1109 0.5v-0.5h0.2q0.3 0 0.6 450.5l0.2 450.5h-540v-0.5l33-3q33-3 65-9.5t61.5-16 58-22.5 51.3-26.7q22.7-13.8 43.2-29.3t39.5-33.5 35.5-38.5 29-41 22-41.5 16.5-45 10-45 3-47.5-3.5-50-11-48-18.5-47.5-24.5-43.5-21-29.5-6.2-12.8q1.2-3.7 78.4-136 77.3-132.2 77.6-132.7l0.2-0.5v-0.5z"/>
   <path d="m0 453v-448h1v0.5l0.2 0.3 0.3 0.2 0.5 1 0.5 1 0.5 1 0.5 1 0.3 0.2 0.2 0.3 0.2 0.3 0.3 0.2 75 129q75 129 59.5 149t-29 44-22.5 47-14.5 47.5-7 37.5-1 42 5 53.5 12 47 19 45.5 25 42.5 28.8 37.3q15.2 17.7 33.2 34.2t41 33 50 31.5 57 27 60.5 20.5 62 13.5 44 6 21.5 1.5l9 0.5v0.5h-533v-448z"/>
   <path d="m0 2.5v-2.5h1109v1l-1 0.2q-1 0.3-164 73.8t-195 62-62-18.5-61-11-65.5-4.5-49.5 0.5-43.5 5-55 10.5-53.5 16.5-33 11.5-162-69l-156-70.5-1-0.5-1-0.5-1-0.5-1-0.5-1.5-0.3-1.5-0.2h-1v-2.5z"/>
  </g>
  <path d="m1108 1.2l1-0.2-0.2 0.5q-0.3 0.5-77.6 132.7-77.2 132.3-78.4 136-1.3 3.8 6.2 12.8t21 29.5 24.5 43.5 18.5 47.5 11 48 3.5 50-3 47.5-10 45-16.5 45-22 41.5-29 41-35.5 38.5-39.5 33.5-43.2 29.3q-22.8 13.7-51.3 26.7t-58 22.5-61.5 16-65 9.5l-33 3v0.5h-37v-0.5l-9-0.5q-9-0.5-21.5-1.5t-44-6-62-13.5-60.5-20.5-57-27-50-31.5-41-33-33.2-34.2q-15.3-17.8-28.8-37.3t-25-42.5-19-45.5-12-47-5-53.5 1-42 7-37.5 14.5-47.5 22.5-47 29-44-59.5-149l-75-129-0.3-0.2-0.2-0.3-0.2-0.3-0.3-0.2-0.5-1-0.5-1-0.5-1-0.5-1-0.3-0.2-0.2-0.3v-0.5l1.5 0.2 1.5 0.3 1 0.5 1 0.5 1 0.5 1 0.5 156 70.5q156 70.5 162 69t33-11.5 53.5-16.5 55-10.5 43.5-5 49.5-0.5 65.5 4.5 61 11 62 18.5 195-62 164-73.8zm-135 202.6v0.2l-0.2 0.5q-0.3 0.5-0.6 0.5h-0.2l-0.2 1-0.3 1-0.3 0.2-0.2 0.3-0.2 0.3-0.3 0.2-0.5 1-0.5 1-18.5 31q-18.5 31-17.8 33.2 0.8 2.3 13.6 18 12.7 15.8 21.2 28.8t8.8 14l0.2 1h0.5l0.5 1 0.5 1 0.3 0.2 0.2 0.3 0.2 0.3 0.3 0.2 0.5 1 0.5 1 0.5 1 0.5 1 0.3 1 0.2 1h0.5l0.5 1 0.5 1 0.3 0.2 0.2 0.3 0.2 0.3 0.3 0.2 0.5 1 0.5 1 0.5 1 0.5 1 0.5 1q0.5 1 5.5 11.5t13 34 12 46 4.5 52.5-1 42-6.5 34-14 45-22 45.5-28.5 42.5-28.8 33.2q-13.2 13.3-30.4 28-17.3 14.8-41.6 31-24.2 16.3-50.2 29.3t-51.5 22.5-57.5 17.5-61.5 12-70.5 4.5-66-2-56.5-9-60.5-16-53-20.5-47-24.5-45-30-37.8-31.8q-15.7-15.2-27.7-29.2t-24.7-32.2q-12.8-18.3-24-40-11.3-21.8-19.3-45.8t-12-46.5-4.5-49.5 3-51 9.5-44.5 15.5-41.5 21.2-40l11.8-19 0.2-0.5q0.3-0.5 1.3-2t11.7-14.5l10.8-13 0.2-0.5q0.3-0.5 3.8-5t-13.8-35.5l-17.2-31-0.5-0.2q-0.5-0.3-0.5-0.6v-0.2l-0.2-0.5q-0.3-0.5-47.3-81l-47-80.5-0.3-0.2-0.2-0.3-0.2-0.3-0.3-0.2-0.5-1-0.5-1-0.5-1-0.5-1-0.3-1-0.2-1 1.5 0.2 1.5 0.3 1 0.5 1 0.5 1.5 0.5 1.5 0.5 45.5 20.5q45.5 20.5 45.5 20.8v0.2l54 24.2q54 24.3 55 24.6l1 0.2h0.2q0.3 0 0.6 0.5l0.2 0.5 1 0.2 1 0.3 30.5 14q30.5 14 32 14.5l1.5 0.5 1 0.5 1 0.5 1 0.5 1 0.5 1.5 0.3 1.5 0.2 30-11.2q30-11.3 60-18.8t58-11.5 42-5 48-0.5 67.5 5 63.5 12 59 18.5 35 9 17-7 12-5.5l1-0.5 1-0.5 1-0.5 1-0.3 1-0.2 27-12.2q27-12.3 28-12.6l1-0.2v-0.2q0-0.3 0.5-0.6l0.5-0.2 46-20.8q46-20.7 47-21l1-0.2v-0.5l1-0.5 1-0.5 47.5-21q47.5-21 49-21.3 1.5-0.2-47 83.6-48.5 83.7-48.5 84z" stroke="#000"/>
  <path d="m581 673.8v0.2l-4.2 9.5q-4.3 9.5-4.3 22.5t4 22.5 6.7 13.5q2.8 4 3.8 4t1 1 10.5 7.8q10.5 6.7 21.5 9.7t22.5 2.5 21.5-4 18-9.5 13.8-13.7q5.7-7.8 8.2-15.3t2.5-18.5-1.5-16-2-6l-0.5-1-0.5-1-0.5-1-0.3-1-0.2-1 3 0.2 3 0.3 28 3q28 3 29.5 3.3l1.5 0.2h0.5l0.3 2 0.2 2-0.2 4q-0.3 4-3.3 12t-9.3 15.8q-6.2 7.7-15.4 15.4-9.3 7.8-27 17-17.8 9.3-40.8 16.3t-48.5 11-53 5-48-0.5-45-6-46-11.5-38-16-26.3-17.7q-9.7-8.8-15.2-16.8t-7.8-17l-2.2-9-0.2-1-0.3-1v-1.5q0-1.5 0.5-3.5l0.5-2 0.3 0.2 0.2 0.3 64.5-4.5q64.5-4.5 119.5-5t55-0.2z" fill="#fff" stroke="#fff"/>
  <path d="m697.5 678.8l3.5 0.2 0.2 1 0.3 1 0.5 1 0.5 1 0.5 1q0.5 1 2 6t1.5 16-2.5 18.5-8.2 15.3q-5.8 7.7-13.8 13.7t-18 9.5-21.5 4-22.5-2.5-21.5-9.7q-10.5-6.8-10.5-7.8t-1-1-3.8-4q-2.7-4-6.7-13.5t-4-22.5 4.3-22.5l4.2-9.5 49 1.8q49 1.7 56.5 2.2t11 0.8zm-20.5 25.7h-5l-1-0.5q-1-0.5-3.2-3.2l-2.3-2.8 0.5-4.5q0.5-4.5 2.8-6.7 2.2-2.3 7.7-2.3t8.7 3.3q3.3 3.2 2.8 7.7t-3.2 6.7q-2.8 2.3-7.8 2.3z" fill="#ca0001" stroke="#ca0001"/>
  <path d="m814 150l1-0.5 1-0.5 1-0.5 1-0.3 1-0.2-0.2 0.5-0.3 0.5-0.3 0.2-0.2 0.3-0.2 0.3-0.3 0.2-0.3 0.2-0.2 0.3 1.2 0.7q1.3 0.8 0.3 1.8t-0.7 2.2q0.2 1.3 1.4 2 1.3 0.8 7.3 8.8t16.7 17.2q10.8 9.3 24.8 15.8t29 9.5 29 2.5 23-2 11.5-1.5 4.5-0.5l2-0.5 0.2-0.3 0.3-0.2 0.3-0.2 0.2-0.3 0.2-0.3 0.3-0.2 0.3 0.2 0.2 0.3 1 0.3 1 0.2v-2h2l-0.2 1-0.3 1-0.3 0.2-0.2 0.3-0.2 0.3-0.3 0.2-0.3 0.2-0.2 0.3-0.2 0.3-0.3 0.2-0.5 1-0.5 1-18.5 31q-18.5 31-17.8 33.2 0.8 2.3 13.6 18 12.7 15.8 21.2 28.8t8.8 14l0.2 1 0.2 1.5 0.3 1.5 1.5 5q1.5 5 1.8 5h0.2l-0.2 4q-0.3 4-0.6 3.8-0.2-0.3-2.4 9.4-2.3 9.8-7.3 35.8t-14 53-22 53-27 47-29.7 39.2q-15.8 18.3-36.3 36.8t-40.3 32.2q-19.7 13.8-24 15.6l-4.2 1.7-1 0.5-1 0.5-0.2 0.3q-0.3 0.2-0.8 1.2l-0.5 1-0.3 1-0.2 1-0.2 1.5-0.3 1.5-0.3 0.2-0.2 0.3-0.2 0.3-0.3 0.2h-0.5l-0.2-2-0.3-2h-0.5v-0.5l0.2-0.3 0.3-0.2 0.3-0.2 0.2-0.3 0.2-0.3 0.3-0.2 0.5-1 0.5-1v-1.5q0-1.5-0.5-5t-3.5-10.5-8.7-14.8q-5.8-7.7-15-15.4-9.3-7.8-24.6-16-15.2-8.3-35.2-15.3t-46.5-12-58.5-6.5-61 1-56.5 8.8l-27.5 6.2-1.5-0.2-1.5-0.3h-2l-1.5 0.5-1.5 0.5h-0.5q-0.5 0-3.7-2.3-3.3-2.2-19.6-13-16.2-10.7-33.7-25.2t-29.7-28.2q-12.3-13.8-24.6-31-12.2-17.3-22-36-9.7-18.8-17.7-41.8t-12-45.5-4.5-49 1.5-43 7.5-38.5 12.5-39 12.5-23 15.8-11.8l10.2-5.7 1-0.5 1-0.5 1-0.5 1-0.5 1.5-0.5 1.5-0.5v-0.5l30-11.2q30-11.3 60-18.8t58-11.5 42-5 48-0.5 67.5 5 63.5 12 59 18.5 35 9 17-7 12-5.5zm-250.5 17.5q23.5 0 39 4t29 10.5 27 16.5 24.3 22.7q10.7 12.8 18.7 27.3t13 32 5.5 39.5-1 30.5-6.5 23.5-12.5 28-17.5 24.5-21.7 20.7q-11.8 9.3-27.8 17.3t-33 12-31.5 4.5-31.5-2.5-30-8-27.5-14-26.5-21-21.2-26.3q-9.3-14.2-15.3-30.2t-8.5-33-1.5-32 4.5-29 11.5-30.5 18.7-29.7q10.8-13.3 23-23 12.3-9.8 27-17.6 14.8-7.7 31.8-12.2t40.5-4.5z" fill="#797886" stroke="#797886"/>
  <path d="m129.2 330l11.8-19-1.2 5q-1.3 5-1.3 12.5t0.5 6.5 4 30.5 10.5 59.5 16 51.5 21.3 46.3q12.2 22.7 26.2 42.7t28 36 31.5 32.5 35 29.5 22.5 15 4 2.3q-1 0.2-1 1.2t1 1 1.2 4l0.3 4 0.3 0.2 0.2 0.3 0.5 0.3 0.5 0.2 2.2 9q2.3 9 7.8 17t15.2 16.8q9.8 8.7 26.3 17.7t38 16 46 11.5 45 6 48 0.5 53-5 48.5-11 40.8-16.3q17.7-9.2 27-17 9.2-7.7 15.4-15.4 6.3-7.8 9.3-15.8t3.3-12l0.2-4h0.5l0.3-0.2 0.2-0.3 0.2-0.3 0.3-0.2 0.3-1.5 0.2-1.5h1.8q1.7 0 4-1.2 2.2-1.3 4.4-2 2.3-0.8 22-14.6 19.8-13.7 34.6-26.4 14.7-12.8 28.7-26.8t30.5-35.5 30.5-45.5 24.5-49.5 17-49 11-46 5.5-28 0.5-6-1-1.5l-0.5-1-0.5-1.5-0.5-1.5-0.3-0.2-0.2-0.3v-1l0.2-0.3 0.3-0.2 0.3-1.5 0.2-1.5h0.5l0.5 1 0.5 1 0.3 0.2 0.2 0.3 0.2 0.3 0.3 0.2 0.5 1 0.5 1 0.5 1 0.5 1 0.5 1q0.5 1 5.5 11.5t13 34 12 46 4.5 52.5-1 42-6.5 34-14 45-22 45.5-28.5 42.5-28.8 33.2q-13.2 13.3-30.4 28-17.3 14.8-41.6 31-24.2 16.3-50.2 29.3t-51.5 22.5-57.5 17.5-61.5 12-70.5 4.5-66-2-56.5-9-60.5-16-53-20.5-47-24.5-45-30-37.8-31.8q-15.7-15.2-27.7-29.2t-24.7-32.2q-12.8-18.3-24-40-11.3-21.8-19.3-45.8t-12-46.5-4.5-49.5 3-51 9.5-44.5 15.5-41.5 21.2-40z" fill="#3c3b59" stroke="#3c3b59"/>
  <path d="m39.2 40l-0.2-1 1.5 0.2 1.5 0.3 1 0.5 1 0.5 1.5 0.5 1.5 0.5 45.5 20.5q45.5 20.5 45.5 20.8v0.2l-1.8 0.5q-1.7 0.5-1.4 1.5 0.2 1-0.8 1t-1 1-0.8 1.5q-0.7 0.5-0.7 12.5t4 22 11.7 18.8q7.8 8.7 18.8 14.2t16 6.5 17 0.5 22-4.5 16.8-9.3q6.7-5.2 8.2-7.2t1.5-2.5 0.3-0.7l0.2-0.3 0.2-0.3 0.3-0.2 0.3-0.2q0.2-0.3-0.8-0.6-1-0.2-1-1.2t1.5-1.2q1.5-0.3 0.5-0.6l-1-0.2v-2l1 0.2 1 0.3 0.2 0.3 0.3 0.2 0.3 0.2 0.2 0.3 30.5 14q30.5 14 32 14.5l1.5 0.5 1 0.5 1 0.5 1 0.5 1 0.5 1.5 0.3 1.5 0.2v0.5l-1.5 0.5-1.5 0.5-1 0.5-1 0.5-1 0.5-1 0.5-10.2 5.7q-10.3 5.8-15.8 11.8t-12.5 23-12.5 39-7.5 38.5-1.5 43 4.5 49 12 45.5 17.7 41.8q9.8 18.7 22 36 12.3 17.2 24.6 31 12.2 13.7 29.7 28.2t33.7 25.2q16.3 10.8 19.6 13 3.2 2.3 3.7 2.3h0.5l1.5-0.5 1.5-0.5h2l1.5 0.3 1.5 0.2v0.5l-1.5 0.5-1.5 0.5-1.5 0.5-1.5 0.5-1.5 0.5q-1.5 0.5-9 3.5t-23 11.5-25.5 17.2l-10 8.8-1-0.2-1-0.3-1-0.5q-1-0.5-2-0.8-1-0.2-1-1.2t-1-1.2q-1-0.3-20-14.8t-34.5-30-29.7-33.2q-14.3-17.8-27-38.6-12.8-20.7-23-43.4-10.3-22.8-17.8-47.8t-11.5-50.5-4-70 1.5-48 17.8-19.3l16.2-15.7 0.2-0.3 0.3-0.2 0.3-0.2 0.2-0.3 0.2-0.3 0.3-0.2 0.3-0.2 0.2-0.3 0.2-0.3 0.3-0.2 0.3-0.2 0.2-0.3 0.2-0.3 0.3-0.2 0.3-1.5 0.2-1.5-1.5-0.2-1.5-0.3-1-0.5-1-0.5-15.5-0.5q-15.5-0.5-32.5-3t-23.5-5.8l-6.5-3.2-0.2-0.5q-0.3-0.5-0.6-0.5h-0.2l-0.2-0.5q-0.3-0.5-47.3-81l-47-80.5-0.3-0.2-0.2-0.3-0.2-0.3-0.3-0.2-0.5-1-0.5-1-0.5-1-0.5-1-0.3-1z" fill="#626376" stroke="#626376"/>
  <path d="m563.5 167.5q23.5 0 39 4t29 10.5 27 16.5 24.3 22.7q10.7 12.8 18.7 27.3t13 32 5.5 39.5-1 30.5-6.5 23.5-12.5 28-17.5 24.5-21.7 20.7q-11.8 9.3-27.8 17.3t-33 12-31.5 4.5-31.5-2.5-30-8-27.5-14-26.5-21-21.2-26.3q-9.3-14.2-15.3-30.2t-8.5-33-1.5-32 4.5-29 11.5-30.5 18.7-29.7q10.8-13.3 23-23 12.3-9.8 27-17.6 14.8-7.7 31.8-12.2t40.5-4.5z" fill="#9c9da2" stroke="#9c9da2"/>
  <path d="m154.8 239.5l-17.8-31.5h1q1 0 1.8 1.5 0.7 1.5 1 0.5 0.2-1 1.2-1t3.5 2.8q2.5 2.7 21 5.7t34 3.5l15.5 0.5 1 0.5 1 0.5 1.5 0.3 1.5 0.2-0.2 1.5-0.3 1.5-0.3 0.2-0.2 0.3-0.2 0.3-0.3 0.2-0.3 0.2-0.2 0.3-0.2 0.3-0.3 0.2-0.3 0.2-0.2 0.3-0.2 0.3-0.3 0.2-0.3 0.2-0.2 0.3-16.2 15.7q-16.3 15.8-17.8 19.3t-1.5 48 4 70 11.5 50.5 17.8 47.8q10.2 22.7 23 43.4 12.7 20.8 27 38.6 14.2 17.7 29.7 33.2t34.5 30 20 14.8q1 0.2 1 1.2t1 1.2q1 0.3 2 0.8l1 0.5 1 0.3 1 0.2v0.5l-0.2 0.3-0.3 0.2-0.3 0.2-0.2 0.3-0.2 0.3-0.3 0.2-0.3 0.2-0.2 0.3-0.2 0.3-0.3 0.2-0.3 0.2-0.2 0.3-0.2 0.3-0.3 0.2-0.3 0.2-0.2 0.3-0.2 0.3-0.3 0.2-0.5 1-0.5 1-0.3 0.2-0.2 0.3-0.2 0.3-0.3 0.2-0.3 0.2-0.2 0.3-0.2 0.3-0.3 0.2-0.3 0.2-0.2 0.3-0.2 0.3-0.3 0.2-0.3 0.2-0.2 0.3-0.2 0.3-0.3 0.2-0.3 0.2-0.2 0.3h-1l-1-0.5q-1-0.5-3-1.5t-22-16.5-34.8-30.2q-14.7-14.8-30-33.6-15.2-18.7-28.4-40-13.3-21.2-24.3-45.2t-18.5-48.5-12-51.5-5.2-58.5q-0.8-31.5-1.8-31.5t-0.5-5.8q0.5-5.7 1-9l0.5-3.2 0.2-0.5q0.3-0.5 3.8-5t-14.2-36z" fill="#55556c" stroke="#55556c"/>
  <path d="m154.2 294l10.8-13-0.5 3.2q-0.5 3.3-0.5 7.8t1.2 37.2q1.3 32.8 5.8 59.8t12 51.5 18.5 48.5 24.3 45.2q13.2 21.3 28.4 40 15.3 18.8 30 33.6 14.8 14.7 34.8 30.2t22 16.5 3 1.5l1 0.5h1l0.2-0.3 0.3-0.2 0.3-0.2 0.2-0.3 0.2-0.3 0.3-0.2 0.3-0.2 0.2-0.3 0.2-0.3 0.3-0.2 0.3-0.2 0.2-0.3 0.2-0.3 0.3-0.2 0.3-0.2 0.2-0.3 0.2-0.3 0.3-0.2 0.5-1 0.5-1 0.3-0.2 0.2-0.3 0.2-0.3 0.3-0.2 0.3-0.2 0.2-0.3 0.2-0.3 0.3-0.2 0.3-0.2 0.2-0.3 0.2-0.3 0.3-0.2 0.3-0.2 0.2-0.3 0.2-0.3 0.3-0.2 0.3-0.2 0.2-0.3v-0.5l10-8.8q10-8.7 25.5-17.2t23-11.5 9-3.5l1.5-0.5 1.5-0.5 1.5-0.5 1.5-0.5 1.5-0.5v-0.5l27.5-6.2q27.5-6.3 56.5-8.8t61-1 58.5 6.5 46.5 12 35.2 15.3q15.3 8.2 24.6 16 9.2 7.7 15 15.4 5.7 7.8 8.7 14.8t3.5 10.5 0.8 5l0.2 1.5 1-0.2 1-0.3 1-0.5 1-0.5 4.2-1.7q4.3-1.8 24-15.6 19.8-13.7 40.3-32.2t36.3-36.8q15.7-18.2 29.7-39.2t27-47 22-53 14-53 7.3-35.8q2.2-9.7 2-14.4-0.3-4.8-0.8-5.8t-1-2l-0.5-1v-4l-0.3-1.5-0.2-1.5h0.5l0.5 1 0.5 1 0.3 0.2 0.2 0.3 0.2 0.3 0.3 0.2 0.5 1 0.5 1 0.5 1 0.5 1 0.3 1 0.2 1 0.2 2q0.3 2 0.3 4v2l0.5 1q0.5 1 1 1.5t-0.5 6-5.5 28-11 46-17 49-24.5 49.5-30.5 45.5-30.5 35.5-28.7 26.8q-14.8 12.7-34.6 26.4-19.7 13.8-22 14.6-2.2 0.7-4.4 2-2.3 1.2-4 1.2h-1.8v-1q0-1-1-0.8l-1 0.3-0.2 0.3-0.3 0.2-0.3 0.2-0.2 0.3v0.5l-1.5-0.2q-1.5-0.3-29.5-3.3l-28-3-3-0.3-3-0.2-3.5-0.2q-3.5-0.3-11-0.8t-56.5-2.2l-49-1.8v-0.2q0-0.3-55 0.2t-119.5 5l-64.5 4.5-0.2-0.3-0.3-0.2-0.5 2q-0.5 2-0.5 3.5v1.5l0.3 1 0.2 1-0.5-0.2-0.5-0.3-0.2-0.3-0.3-0.2-0.3-4q-0.2-4-1.2-4t-1-1 1-1.2q1-0.3-4-2.3t-22.5-15-35-29.5-31.5-32.5-28-36-26.2-42.7q-12.3-22.8-21.3-46.3t-16-51.5-10.5-59.5-4-30.5-0.5-6.5 1.3-12.5l1.2-5 0.2-0.5q0.3-0.5 1.3-2t11.7-14.5z" fill="#343453" stroke="#343453"/>
  <path d="m677 704.5h-5l-1-0.5q-1-0.5-3.2-3.2l-2.3-2.8 0.5-4.5q0.5-4.5 2.8-6.7 2.2-2.3 7.7-2.3t8.7 3.3q3.3 3.2 2.8 7.7t-3.2 6.7q-2.8 2.3-7.8 2.3z" fill="#fefefe" stroke="#fefefe"/>
  <path d="m973 203.8v0.2l-0.5 0.2q-0.5 0.3-0.5 0.6v0.2l-0.5 0.2q-0.5 0.3-1.5 0.3h-1l-0.2-0.3-0.3-0.2-0.3 0.2-0.2 0.3-0.2 0.3-0.3 0.2-0.3 0.2-0.2 0.3-2 0.5q-2 0.5-4.5 0.5t-11.5 1.5-23 2-29-2.5-29-9.5-24.8-15.8q-10.7-9.2-16.7-17.2t-7.3-8.8q-1.2-0.7-1.4-2-0.3-1.2 0.7-2.2t-0.3-1.8l-1.2-0.7 0.2-0.3 0.3-0.2 0.3-0.2 0.2-0.3 0.2-0.3 0.3-0.2 0.3-0.5 0.2-0.5 27-12.2q27-12.3 27.2-12.6l0.3-0.2 0.3-0.2 0.2-0.3 1-0.3 1-0.2v2l-1 0.2-1 0.3 1.2 0.7q1.3 0.8 1 1l-0.2 0.3-0.2 0.3-0.3 0.2-0.3 0.2-0.2 0.3 0.2 0.3 0.3 0.2 4 4.5q4 4.5 9.7 8.7 5.8 4.3 16.8 7.3t21.5 2 19.5-5.5 15.8-11.2q6.7-6.8 10.2-14.8t3.5-21.5-1.5-15-1.2-1.7q0.2-0.3-1.8-0.6l-2-0.2v-0.5l1-0.5 1-0.5 47.5-21q47.5-21 49-21.3 1.5-0.2-47 83.6-48.5 83.7-48.5 84z" fill="#737281" stroke="#737281"/>
  <path d="m136.2 83.5l1.8-0.5 54 24.2q54 24.3 55 24.6l1 0.2v0.5l0.5 0.3 0.5 0.2v0.5l0.2 0.3 0.3 0.2v1l-0.5 1.5-0.5 1.5-0.3 0.2-0.2 0.3-0.2 0.3q-0.3 0.2-0.3 0.7t-1.5 2.5-8.2 7.2q-6.8 5.3-16.8 9.3t-22 4.5-17-0.5-16-6.5-18.8-14.2q-7.7-8.8-11.7-18.8t-4-22 0.7-12.5q0.8-0.5 0.8-1.5t1-1 0.8-1q-0.3-1 1.4-1.5z" fill="#93939b" stroke="#93939b"/>
  <path d="m969 80.2l1-0.2 2 0.2q2 0.3 1.8 0.6-0.3 0.2 1.2 1.7t1.5 15-3.5 21.5-10.2 14.8q-6.8 6.7-15.8 11.2t-19.5 5.5-21.5-2-16.8-7.3q-5.7-4.2-9.7-8.7l-4-4.5-0.3-0.2-0.2-0.3 0.2-0.3 0.3-0.2 0.3-0.2 0.2-0.3 0.2-0.3q0.3-0.2-1-1l-1.2-0.7 0.2-0.3 0.3-0.2 0.3-0.5 0.2-0.5h0.5l0.3-0.5 0.2-0.5 46-20.8q46-20.7 47-21z" fill="#98999f" stroke="#98999f"/>
 </g>
</svg>
