<?xml version="1.0" encoding="utf-8"?>
<!-- Generator: Adobe Illustrator 22.1.0, SVG Export Plug-In . SVG Version: 6.00 Build 0)  -->
<svg version="1.1" id="Layer_1" xmlns="http://www.w3.org/2000/svg" xmlns:xlink="http://www.w3.org/1999/xlink" x="0px" y="0px"
	 viewBox="0 0 430 430" style="enable-background:new 0 0 430 430;" xml:space="preserve">
<style type="text/css">
	.st0{fill:#F94141;}
	.st1{fill:#E22B2B;}
	.st2{fill:#FFD578;}
	.st3{fill:#54596E;}
	.st4{fill:#FFF35F;}
	.st5{fill:#FF927D;}
	.st6{fill:#FFFFFF;}
	.st7{fill:#FF0031;}
	.st8{fill:#FFE477;}
	.st9{fill:#FF3F62;}
	.st10{fill:#FFB655;}
	.st11{fill:#C70024;}
</style>
<path class="st0" d="M176.9,257.7l-1.3,0.6L61.6,308.1c-7.6-7.6-8.2-14.3-6.2-21.4c0.7-2.6,1.9-5.3,3.1-8.2
	c2.8-6.2,6.2-12.9,8.1-20.9c5-21.6-14.4-25.9-14.4-25.9c7.5-12.6,41.7-19.2,73.7-13.8c3.6,0.6,7.2,1.4,10.7,2.3l35.9,3.6l3.9,30.8
	L176.9,257.7z"/>
<path class="st1" d="M176.5,254.6l-0.9,3.7L61.6,308.1c-7.6-7.6-8.2-14.3-6.2-21.4c0.6-2.9,1.7-5.6,3.1-8.2
	c9.8-17,37.1-26.5,51.3-29.9c13-3.1,20.2-18.2,16.1-30.8c3.6,0.6,7.2,1.4,10.7,2.3l35.9,3.6L176.5,254.6z"/>
<path d="M117.6,263.2c-0.5-1.9-2.5-3.1-4.4-2.6c-0.2,0.1-21.9,5.8-38.1,11.1c-1.9,0.6-2.9,2.6-2.3,4.5c0.5,1.5,1.9,2.5,3.4,2.5
	c0.4,0,0.7-0.1,1.1-0.2c16.1-5.2,37.5-10.9,37.8-11C117,267.1,118.1,265.1,117.6,263.2z"/>
<path class="st2" d="M258.9,323.8c0-8.6-21.7-15.7-48.5-15.7s-48.5,7-48.5,15.7c0,8.6,21.7,15.7,48.5,15.7S258.9,332.5,258.9,323.8z
	"/>
<path class="st3" d="M258.9,323.8h3.2c0-1.8-0.6-3.5-1.5-4.9c-1.6-2.5-4.1-4.4-7.3-6.1c-4.7-2.5-10.9-4.4-18.3-5.8
	c-7.3-1.4-15.8-2.1-24.7-2.1c-13.7,0-26.1,1.8-35.3,4.7c-4.6,1.5-8.5,3.3-11.4,5.5c-1.5,1.1-2.7,2.3-3.6,3.8
	c-0.9,1.4-1.5,3.1-1.5,4.9c0,1.8,0.6,3.5,1.5,4.9c1.6,2.5,4.1,4.4,7.3,6.1c4.7,2.5,10.9,4.4,18.3,5.8c7.3,1.4,15.8,2.1,24.7,2.1
	c13.7,0,26.1-1.8,35.3-4.7c4.6-1.5,8.5-3.3,11.4-5.5c1.5-1.1,2.7-2.3,3.6-3.8c0.9-1.4,1.5-3.1,1.5-4.9h-6.5c0,0.4-0.1,0.8-0.5,1.4
	c-0.6,1.1-2.3,2.5-4.8,3.8c-3.8,2-9.5,3.9-16.4,5.1c-6.9,1.3-14.9,2-23.6,2c-13.1,0-25-1.7-33.3-4.4c-4.2-1.3-7.4-2.9-9.4-4.5
	c-1-0.8-1.7-1.5-2.1-2.1c-0.4-0.6-0.5-1-0.5-1.4c0-0.4,0.1-0.8,0.5-1.4c0.6-1.1,2.3-2.5,4.8-3.8c3.8-2,9.5-3.9,16.4-5.1
	c6.9-1.3,14.9-2,23.6-2c13.1,0,25,1.7,33.3,4.4c4.2,1.3,7.4,2.9,9.4,4.5c1,0.8,1.7,1.5,2.1,2.1c0.4,0.6,0.5,1,0.5,1.4H258.9z"/>
<path class="st4" d="M216.9,159.2v-10.4c0-3.6-2.9-6.5-6.5-6.5c-3.6,0-6.5,2.9-6.5,6.5v10.4c-16.5,3.1-29.1,17.7-29.1,35.3v124.1
	c0,6.2,15.9,11.2,35.6,11.2c19.6,0,35.6-5,35.6-11.2V194.5C246,176.9,233.4,162.3,216.9,159.2z"/>
<g>
	<path class="st3" d="M216.9,159.2h3.2v-10.4c0-5.4-4.3-9.8-9.7-9.8c-5.4,0-9.7,4.4-9.7,9.8v10.4h3.2l-0.6-3.2
		c-18.1,3.4-31.7,19.3-31.7,38.5v124.1c0,1.5,0.5,2.9,1.2,4c1.3,2,3.3,3.4,5.7,4.7c3.6,1.8,8.2,3.2,13.6,4.2
		c5.4,1,11.7,1.5,18.3,1.5c10.1,0,19.2-1.3,26.1-3.4c3.4-1.1,6.3-2.4,8.6-4.1c1.1-0.8,2.1-1.8,2.9-2.9c0.7-1.1,1.2-2.5,1.2-4V194.5
		c0-19.2-13.7-35.1-31.7-38.5L216.9,159.2h3.2H216.9l-0.6,3.2c15,2.8,26.5,16.1,26.5,32.1v124.1c0,0.1,0,0.2-0.2,0.5
		c-0.3,0.5-1.4,1.5-3.2,2.4c-2.7,1.4-6.8,2.7-11.8,3.6c-5,0.9-10.9,1.4-17.1,1.4c-9.5,0-18.2-1.2-24.2-3.1c-3-0.9-5.3-2.1-6.7-3.1
		c-0.7-0.5-1.1-1-1.3-1.3c-0.2-0.3-0.2-0.4-0.2-0.5V194.5c0-16,11.4-29.3,26.5-32.1c1.5-0.3,2.6-1.6,2.6-3.2v-10.4
		c0-1.8,1.5-3.3,3.2-3.3c1.8,0,3.2,1.5,3.2,3.3v10.4c0,1.6,1.1,2.9,2.6,3.2L216.9,159.2z"/>
	<path class="st3" d="M196.8,171.5c-9.2,4.9-15.4,14.6-15.4,25.7c0,1.8,1.4,3.2,3.2,3.2s3.2-1.4,3.2-3.2c0-8.7,4.9-16.2,12-20
		c1.6-0.8,2.2-2.8,1.3-4.4C200.3,171.3,198.3,170.7,196.8,171.5z"/>
	<path class="st3" d="M194.3,258.6c0,8.9,7.2,16.2,16.2,16.2c8.9,0,16.2-7.2,16.2-16.2H194.3z"/>
	<path class="st3" d="M194.3,258.6H191c0,10.7,8.7,19.4,19.4,19.4c10.7,0,19.4-8.7,19.4-19.4c0-0.9-0.3-1.7-0.9-2.3
		c-0.6-0.6-1.4-0.9-2.3-0.9h-32.3c-0.9,0-1.7,0.3-2.3,0.9c-0.6,0.6-0.9,1.4-0.9,2.3H194.3v3.2h32.3v-3.2h-3.2c0,3.6-1.4,6.8-3.8,9.1
		c-2.3,2.3-5.6,3.8-9.1,3.8c-3.6,0-6.8-1.4-9.1-3.8c-2.3-2.3-3.8-5.6-3.8-9.1H194.3v3.2V258.6z"/>
</g>
<path class="st5" d="M216.9,268.3c0-1.8-2.9-3.2-6.5-3.2c-3.6,0-6.5,1.4-6.5,3.2s2.9,3.2,6.5,3.2C214,271.6,216.9,270.1,216.9,268.3
	z"/>
<path class="st6" d="M204,218.2c0,6.2-5.1,11.3-11.3,11.3s-11.3-5.1-11.3-11.3s5.1-11.3,11.3-11.3S204,212,204,218.2z"/>
<path class="st3" d="M204,218.2h3.2c0-8-6.5-14.5-14.5-14.5c-8,0-14.5,6.5-14.6,14.5c0,8,6.5,14.5,14.6,14.5c8,0,14.5-6.5,14.5-14.5
	h-6.5c0,4.5-3.6,8.1-8.1,8.1c-4.5,0-8.1-3.6-8.1-8.1c0-4.5,3.6-8.1,8.1-8.1c4.5,0,8.1,3.6,8.1,8.1H204z"/>
<path class="st3" d="M197.5,218.2c0,2.7-2.2,4.8-4.8,4.8s-4.9-2.2-4.9-4.8c0-2.7,2.2-4.9,4.9-4.9S197.5,215.5,197.5,218.2z"/>
<path class="st6" d="M239.5,218.2c0,6.2-5.1,11.3-11.3,11.3s-11.3-5.1-11.3-11.3s5.1-11.3,11.3-11.3S239.5,212,239.5,218.2z"/>
<path class="st3" d="M239.5,218.2h3.2c0-8-6.5-14.5-14.5-14.5c-8,0-14.5,6.5-14.6,14.5c0,8,6.5,14.5,14.6,14.5
	c8,0,14.5-6.5,14.5-14.5h-6.5c0,4.5-3.6,8.1-8.1,8.1c-4.5,0-8.1-3.6-8.1-8.1c0-4.5,3.6-8.1,8.1-8.1c4.5,0,8.1,3.6,8.1,8.1H239.5z"/>
<path class="st3" d="M233.1,218.2c0,2.7-2.2,4.8-4.8,4.8c-2.7,0-4.9-2.2-4.9-4.8c0-2.7,2.2-4.9,4.9-4.9
	C230.9,213.4,233.1,215.5,233.1,218.2z"/>
<g>
	<g>
		<path class="st7" d="M230.8,297.3l-5.4-7.2c-0.2-0.2-0.4-0.4-0.7-0.4H194c-0.3,0-0.6,0.1-0.7,0.4l-5.4,7.2c-0.3,0.3-0.2,0.8,0,1.1
			l20.8,23.5c0.2,0.2,0.4,0.3,0.7,0.3s0.5-0.1,0.7-0.3l20.8-23.5C231,298.1,231,297.6,230.8,297.3z M193.2,295.5
			c-1.1,1.6-1.7,3-1.8,4.2l-1.7-1.9l4.7-6.3h4.3C196.6,292.3,194.5,293.6,193.2,295.5z M209.3,319.9L205,315c0.1,0,0.2,0,0.3,0
			c2.4,0,6.1-0.2,9.3-1.1L209.3,319.9z M218.4,309.3c-0.6,2.3-4.9,3.4-9.3,3.7c-0.4-1.7-1.8-5.3-5.2-5.3c-2.1,0-3.3,0.9-3.9,1.6
			l-3.2-3.6c0.8,0.1,1.7,0.2,2.6,0.2c0,0,0,0,0,0c13.9,0,17.9,1.4,18.8,2.7C218.4,308.8,218.4,309,218.4,309.3z M224.9,302.2
			c-2-3.5-7.6-3.6-15.6-3.6c-5.4,0-5.4-1.8-5.4-2.7c0-2,0.9-4.5,5.4-4.5h0.1c7.2,0,8.9,4.6,8.9,4.8c0.1,0.4,0.5,0.6,0.9,0.6h5.4
			c0.5,0,0.9-0.4,0.9-0.9v-2.7l3.3,4.5L224.9,302.2z"/>
	</g>
</g>
<path class="st8" d="M292,265.3l-1.8-28.1l-10.4-3.3l-4.3,4.3v8.2c0.9,0.9,1.4,1.4,2.3,2.3h2.6l-2.2,16.6H292z"/>
<path class="st9" d="M278.7,265.3l-0.6,5.5h-15.1l-6.8-7.8h-12.6v20.3h45.9c1.4-1.4,2.2-2.2,3.5-3.5l-1.4-14.5H278.7z"/>
<path class="st10" d="M280.8,248.8c-0.9-0.9-1.4-1.4-2.3-2.3v-8.2l3.6-3.6l-2.3-0.7l-4.3,4.3v8.2c0.9,0.9,1.4,1.4,2.3,2.3h2.6
	l-2.2,16.6h3l2.2-16.6H280.8z"/>
<path class="st11" d="M281,270.9l0.6-5.5h-3l-0.6,5.5H281z"/>
<path class="st11" d="M243.5,263h3v20.3h-3V263z"/>
<path d="M279.6,249.5l-2.2,16.6h15.5l-1.9-29.4l-11.3-3.6l-4.9,4.9v8.8l2.7,2.7H279.6z M276.3,244.2h4.4l1.2-1.2v-3.5h-3.6v1.5h2.1
	v1.4l-0.3,0.3h-3.8v-4.1l3.8-3.8l9.5,3l1.7,26.8H279l2-15.1h3.6V248h-6.6l-1.8-1.8V244.2z"/>
<path d="M260.7,256.5l3.1-3.1l1.1,1.1l-3.1,3.1L260.7,256.5z"/>
<path d="M264.2,263.4h4.3v1.5h-4.3V263.4z"/>
<path d="M253.4,249.8h1.5v4.3h-1.5V249.8z"/>
<path d="M292.5,267.2l-1.5,0.1l1.2,12.2l-3.1,3.1h-44.9v-18.8h11.5l6.2,7l-2.8,2.8l1.1,1.1l3-3h14.5l2.9,2.9l1.1-1.1l-2.8-2.8
	l0.4-3.2l-1.5-0.2l-0.3,2.9h-14.1l-6.8-7.8h-13.7v21.8h47l4-4L292.5,267.2z"/>
<g>
	<path class="st6" d="M277.7,274.1h-8.9v-1.5h8.9V274.1z M267.7,274.1h-1.5v-1.5h1.5V274.1z M265.2,274.1h-1.5v-1.5h1.5V274.1z"/>
	<path class="st6" d="M289.6,279l-0.6-6.1l1.5-0.1l0.6,6.1L289.6,279z M288.9,271.9l-0.1-1.5l1.5-0.1l0.1,1.5L288.9,271.9z
		 M288.7,269.4l-0.1-1.5l1.5-0.1l0.1,1.5L288.7,269.4z"/>
	<path class="st6" d="M288.6,262.9l-0.6-9.1l1.5-0.1l0.6,9.1L288.6,262.9z M288,252.8l-0.1-1.5l1.5-0.1l0.1,1.5L288,252.8z
		 M287.8,250.3l-0.1-1.5l1.5-0.1l0.1,1.5L287.8,250.3z"/>
</g>
<path class="st8" d="M138,265l-2.2-16.6h2.6c0.9-0.9,1.4-1.4,2.3-2.3V238l-4.3-4.3l-10.4,3.3l-1.8,28.1H138z"/>
<path class="st9" d="M124.6,265l-1.4,14.5c1.4,1.4,2.2,2.2,3.5,3.5h45.9v-20.3h-12.6l-6.8,7.8h-15.1l-0.6-5.5H124.6z"/>
<path class="st10" d="M132.8,248.4L135,265h3l-2.2-16.6h2.6c0.9-0.9,1.4-1.4,2.3-2.3V238l-4.3-4.3l-2.3,0.7l3.6,3.6v8.2
	c-0.9,0.9-1.4,1.4-2.3,2.3H132.8z"/>
<path class="st11" d="M138.1,270.5l-0.6-5.5h-3l0.6,5.5H138.1z"/>
<path class="st11" d="M172.7,283h-3v-20.3h3V283z"/>
<path d="M138.7,249.2l2.7-2.7v-8.8l-4.9-4.9l-11.3,3.6l-1.9,29.4h15.5l-2.2-16.6H138.7z M139.9,245.8l-1.8,1.8h-6.6v1.5h3.6l2,15.1
	h-12.2l1.7-26.8l9.5-3l3.8,3.8v4.1h-3.8l-0.3-0.3v-1.4h2.1v-1.5h-3.6v3.5l1.2,1.2h4.4V245.8z"/>
<path d="M154.4,257.2l-3.1-3.1l1.1-1.1l3.1,3.1L154.4,257.2z"/>
<path d="M152,264.6h-4.3v-1.5h4.3V264.6z"/>
<path d="M162.8,253.7h-1.5v-4.3h1.5V253.7z"/>
<path d="M122.4,279.8l4,4h47v-21.8h-13.7l-6.8,7.8h-14.1l-0.3-2.9l-1.5,0.2l0.4,3.2l-2.8,2.8l1.1,1.1l2.9-2.9h14.5l3,3l1.1-1.1
	l-2.8-2.8l6.2-7h11.5v18.8H127l-3.1-3.1l1.2-12.2l-1.5-0.1L122.4,279.8z"/>
<g>
	<path class="st6" d="M138.5,272.3h8.9v1.5h-8.9V272.3z M148.5,272.3h1.5v1.5h-1.5V272.3z M151,272.3h1.5v1.5H151V272.3z"/>
	<path class="st6" d="M125.1,278.5l0.6-6.1l1.5,0.1l-0.6,6.1L125.1,278.5z M125.8,271.4l0.1-1.5l1.5,0.1l-0.1,1.5L125.8,271.4z
		 M126,268.9l0.1-1.5l1.5,0.1l-0.1,1.5L126,268.9z"/>
	<path class="st6" d="M126,262.4l0.6-9.1l1.5,0.1l-0.6,9.1L126,262.4z M126.7,252.3l0.1-1.5l1.5,0.1l-0.1,1.5L126.7,252.3z
		 M126.9,249.9l0.1-1.5l1.5,0.1l-0.1,1.5L126.9,249.9z"/>
</g>
</svg>
