<svg id="Capa_1" enable-background="new 0 0 512.014 512.014" height="512" viewBox="0 0 512.014 512.014" width="512" xmlns="http://www.w3.org/2000/svg"><g><path d="m320.911 215.144-105.767 105.767c-6.638 6.638-17.402 6.638-24.04 0s-6.638-17.402 0-24.04l105.767-105.767c6.638-6.638 17.402-6.638 24.04 0s6.638 17.401 0 24.04z" fill="#8de1e0"/><path d="m320.911 191.104c-6.638-6.638-17.402-6.638-24.04 0l-30.759 30.758c6.158 7.29 12.308 21.078 13.129 34.951l41.67-41.67c6.638-6.638 6.638-17.401 0-24.039z" fill="#58d1b4"/><path d="m497.35 360.847c-9.543 9.543-25.015 9.543-34.557 0-26.973-26.973-64.25-19.265-122.437-3.362-27.76 7.587-56.465 15.431-84.403 16.13-35.055.876-63.014-9.616-85.475-32.078-9.543-9.543-9.543-25.014 0-34.557s25.015-9.543 34.557 0c26.973 26.973 64.25 19.265 122.437 3.362 27.76-7.587 56.465-15.431 84.403-16.13 35.054-.876 63.013 9.616 85.475 32.078 9.543 9.543 9.543 25.015 0 34.557z" fill="#f6ee86"/><path d="m388.952 296.231c-32.766 4.686-64.217 15.863-97.145 23.173-4.602 16.971-9.424 34.12-12.932 52.191 32.766-4.686 64.217-15.863 97.145-23.173 4.598-16.953 9.423-34.117 12.932-52.191z" fill="#eed076"/><path d="m341.537 205.035c-9.543 9.543-25.015 9.543-34.557 0-26.973-26.973-64.25-19.265-122.437-3.362-27.76 7.587-56.465 15.431-84.403 16.13-35.055.876-63.014-9.616-85.475-32.078-9.543-9.543-9.543-25.015 0-34.557 9.543-9.543 25.015-9.543 34.557 0 26.973 26.973 64.25 19.265 122.437 3.362 27.76-7.587 56.465-15.431 84.403-16.13 35.055-.876 63.013 9.616 85.475 32.078 9.543 9.542 9.543 25.014 0 34.557z" fill="#eda1ab"/><path d="m233.139 140.419c-32.766 4.686-64.217 15.863-97.145 23.173-4.598 16.953-9.423 34.118-12.932 52.191 32.766-4.686 64.217-15.863 97.145-23.173 4.602-16.971 9.424-34.121 12.932-52.191z" fill="#e58996"/><path d="m174.356 71.068-101.167 101.166c-6.638 6.638-17.402 6.638-24.04 0s-6.638-17.402 0-24.04l101.167-101.166c6.638-6.638 17.402-6.638 24.04 0s6.638 17.401 0 24.04z" fill="#8de1e0"/><path d="m174.356 47.028c-6.638-6.638-17.402-6.638-24.04 0l-31.466 31.465c6.158 7.29 12.308 21.078 13.129 34.951l42.377-42.377c6.638-6.638 6.638-17.401 0-24.039z" fill="#58d1b4"/><path d="m462.865 363.82-101.166 101.167c-6.638 6.638-17.402 6.638-24.04 0s-6.638-17.402 0-24.04l101.167-101.167c6.638-6.638 17.402-6.638 24.04 0s6.638 17.402-.001 24.04z" fill="#8de1e0"/><path d="m360.847 497.35c-9.543 9.543-25.015 9.543-34.557 0-22.461-22.461-32.954-50.421-32.078-85.475.698-27.938 8.543-56.643 16.13-84.403 15.902-58.187 23.611-95.464-3.362-122.437-9.543-9.543-9.543-25.015 0-34.557 9.543-9.543 25.015-9.543 34.557 0 22.461 22.462 32.954 50.421 32.078 85.475-.698 27.938-8.543 56.643-16.13 84.403-15.902 58.187-23.611 95.464 3.362 122.437 9.543 9.543 9.543 25.014 0 34.557z" fill="#eda1ab"/><path d="m205.035 341.537c-9.543 9.543-25.015 9.543-34.557 0-22.462-22.461-32.954-50.421-32.078-85.475.698-27.938 8.543-56.643 16.13-84.403 15.902-58.187 23.611-95.464-3.362-122.437-9.543-9.543-9.543-25.015 0-34.557 9.543-9.543 25.015-9.543 34.557 0 22.462 22.461 32.954 50.421 32.078 85.475-.698 27.938-8.543 56.643-16.13 84.403-15.902 58.187-23.611 95.464 3.362 122.437 9.542 9.543 9.542 25.014 0 34.557z" fill="#f6ee86"/><path d="m502.653 320.987c-34.447-34.448-77.403-39.257-125.362-30.449 8.754-47.821 4.097-90.816-30.45-125.363-34.451-34.451-77.406-39.258-125.363-30.45 3.209-17.531 4.908-35.284 3.199-53.092-.396-4.123-4.057-7.148-8.183-6.749-4.123.396-7.145 4.059-6.749 8.183 7.789 81.144-63.316 175.916-10.014 229.218 27.579 27.579 64.947 21.672 103.673 12.121-3.337 12.227-6.698 24.469-9.566 36.967-44.631 9.087-85.526 7.394-118.057-25.138-66.699-66.697-1.337-164.553.643-237.294.634-23.29-5.706-40.774-19.954-55.021-6.603-6.603-6.603-17.347 0-23.951 6.619-6.619 17.332-6.619 23.951 0 9.006 9.007 15.776 18.685 20.695 29.587 1.703 3.776 6.145 5.455 9.921 3.752 3.776-1.704 5.456-6.146 3.752-9.921-5.599-12.409-13.594-23.856-23.762-34.024-12.451-12.452-32.713-12.452-45.164 0-10.073 10.074-11.994 25.256-5.769 37.281l-93.481 93.481c-12.071-6.217-27.315-4.197-37.252 5.74-12.481 12.48-12.483 32.683 0 45.164 34.361 34.362 77.222 39.29 125.363 30.448-8.754 47.822-4.099 90.817 30.45 125.365 34.386 34.387 77.21 39.291 125.363 30.448-4.902 26.778-6.147 53.918 2.226 79.773 1.279 3.951 5.515 6.098 9.446 4.825 3.94-1.276 6.1-5.505 4.825-9.446-27.724-85.612 63.788-194.169 5.249-252.709-26.397-26.397-61.248-22.585-103.672-12.123 3.345-12.261 6.693-24.45 9.566-36.966 44.639-9.089 85.538-7.381 118.058 25.138 86.472 86.472-48.736 224.27 19.31 292.315 6.603 6.603 6.603 17.347 0 23.951-6.619 6.619-17.332 6.619-23.951 0-3.161-3.161-6.103-6.479-8.744-9.86-2.549-3.266-7.263-3.846-10.527-1.295-3.265 2.549-3.845 7.262-1.295 10.527 3.016 3.863 6.367 7.643 9.96 11.235 12.45 12.451 32.713 12.452 45.164 0 10.073-10.073 11.994-25.255 5.769-37.281l93.473-93.474c12.026 6.198 27.282 4.231 37.26-5.748 12.48-12.481 12.482-32.684-.001-45.165zm-350.642-168.988c-23.109 5.947-41.811 9.638-57.405 9.424l66.846-66.846c.227 17.836-4.897 39.784-9.441 57.422zm-97.559 1.498 95.011-95.012c4.325 5.218 7.421 10.954 9.382 17.485l-90.96 90.959c-3.703 3.704-9.73 3.704-13.433.001s-3.703-9.729 0-13.433zm-34.484 26.924c-6.618-6.619-6.619-17.332 0-23.951 4.781-4.781 11.876-6.094 17.931-3.834-2.747 8.484-.779 18.175 5.947 24.902 9.551 9.551 25.093 9.553 34.646 0l2.243-2.243c21.052 3.481 45.633-1.545 66.862-6.726-3.349 12.278-6.691 24.437-9.573 36.99-44.64 9.089-85.538 7.381-118.056-25.138zm294.744 51.528c6.477 21.839-.749 52.034-6.888 75.865-34.042 8.758-57.685 12.402-75.912 6.935zm-6.896-14.317-90.19 90.19c-5.135-3.615-9.805-8.271-13.427-13.44l90.19-90.19c5.124 3.608 9.797 8.261 13.427 13.44zm-27.714-20.366-82.799 82.799c-6.477-21.839.749-52.034 6.888-75.865 34.042-8.757 57.684-12.401 75.911-6.934zm79.901 162.75c23.106-5.945 41.81-9.636 57.401-9.421l-66.842 66.843c-.227-17.837 4.897-39.783 9.441-57.422zm97.559-1.499-95.011 95.012c-4.325-5.219-7.421-10.954-9.382-17.485l90.959-90.959c3.703-3.704 9.73-3.704 13.433-.001 3.704 3.703 3.704 9.729.001 13.433zm34.485-2.973c-4.781 4.781-11.876 6.094-17.931 3.834 2.747-8.484.779-18.175-5.947-24.902-9.552-9.552-25.095-9.551-34.647 0l-2.239 2.239c-18.412-3.044-39.861.145-66.868 6.735 3.354-12.292 6.703-24.487 9.574-36.995 44.619-9.085 85.532-7.388 118.057 25.137 6.619 6.62 6.62 17.333.001 23.952z"/></g></svg>